<svg width="30" height="30" viewBox="0 0 30 30" fill="none" xmlns="http://www.w3.org/2000/svg">
<path d="M16.9449 25.4831V18.3029H18.899C19.047 17.3578 19.1923 16.4309 19.3411 15.4806H16.3816C16.3766 15.4041 16.3696 15.3458 16.3695 15.2878C16.3687 14.7155 16.3671 14.1433 16.3694 13.571C16.3728 12.7329 16.8464 12.1809 17.6755 12.1159C18.2713 12.0692 18.8723 12.0892 19.471 12.0798C19.5581 12.0784 19.6453 12.0793 19.7475 12.0793V9.59832C18.5656 9.4614 17.3848 9.26242 16.1996 9.5617C14.7718 9.92224 13.8213 10.959 13.629 12.4181C13.5493 13.0222 13.5611 13.6389 13.543 14.2502C13.5313 14.6466 13.5408 15.0435 13.5408 15.465H11.2783C11.2783 15.9513 11.2783 16.4133 11.2783 16.8752C11.2783 17.3393 11.2783 17.8036 11.2783 18.2927H13.5272V25.4767C9.28213 24.9184 5.03348 21.2557 5.00018 15.5485C4.96798 10.03 9.32271 5.7087 14.5651 5.49188C20.1825 5.25955 24.5896 9.57317 24.9684 14.6965C25.4281 20.9141 20.7896 24.7716 16.9449 25.4831Z" fill="#666666"/>
</svg>
