<svg width="31" height="30" viewBox="0 0 31 30" fill="none" xmlns="http://www.w3.org/2000/svg">
<path fill-rule="evenodd" clip-rule="evenodd" d="M11.5435 5H17.5299C17.5542 5.00319 17.5784 5.0069 17.6026 5.01061L17.6026 5.01061C17.6541 5.01848 17.7055 5.02635 17.7572 5.02925C17.9397 5.03946 18.1223 5.04842 18.3049 5.05738C18.6428 5.07396 18.9807 5.09055 19.318 5.11504C19.8854 5.15624 20.438 5.27917 20.9726 5.47381C22.3235 5.96561 23.3126 6.85901 23.9223 8.15968C24.28 8.92281 24.4375 9.73727 24.4956 10.5736C24.5008 10.6477 24.5106 10.7213 24.5204 10.795L24.5204 10.795C24.525 10.8294 24.5296 10.8638 24.5337 10.8982V18.9451C24.5299 18.9751 24.5254 19.0051 24.5209 19.035L24.5209 19.035C24.5112 19.0998 24.5015 19.1646 24.4985 19.2298C24.4707 19.8359 24.3892 20.434 24.2192 21.0173C23.7803 22.5223 22.8686 23.6385 21.4524 24.3271C20.7049 24.6905 19.9024 24.861 19.0781 24.914C18.389 24.9582 17.6978 24.9744 17.0073 24.9905C16.5047 25.0022 16.0018 25.0005 15.4991 24.9988L15.3646 24.9983C14.9704 24.997 14.5761 24.9979 14.1819 24.9988C12.8423 25.0017 11.5026 25.0046 10.1642 24.9237C9.51127 24.8843 8.86955 24.7816 8.25031 24.5679C6.70559 24.0347 5.62988 23.0113 5.03772 21.4862C4.72751 20.6872 4.62098 19.8507 4.58802 19.0031C4.56147 18.3205 4.54109 17.6374 4.54285 16.9543C4.54426 16.4086 4.54136 15.8629 4.53845 15.3171C4.53011 13.7479 4.52176 12.1786 4.61591 10.6106C4.65268 9.99821 4.75048 9.3967 4.93598 8.81092C5.33349 7.55563 6.09128 6.57753 7.22138 5.89935C8.09396 5.37572 9.0611 5.15337 10.0661 5.08189C10.3499 5.06171 10.6345 5.05248 10.9191 5.04325C11.071 5.03833 11.2229 5.0334 11.3748 5.02681C11.4132 5.02514 11.4514 5.01758 11.4897 5.01003L11.4897 5.01003L11.4897 5.01002C11.5076 5.00648 11.5255 5.00294 11.5435 5ZM22.769 15.0279H22.7851C22.7799 14.6792 22.7752 14.3304 22.7704 13.9817V13.9816C22.759 13.1396 22.7475 12.2977 22.7295 11.4558C22.7165 10.8513 22.6819 10.2471 22.5378 9.65519C22.3386 8.83701 21.932 8.15168 21.2497 7.64347C20.7137 7.24422 20.095 7.05588 19.4443 6.9542C18.8955 6.86845 18.3406 6.85018 17.7876 6.84404L17.4433 6.84019C15.1334 6.81427 12.8233 6.78834 10.5139 6.87621C9.94602 6.89782 9.38417 6.96687 8.84296 7.15162C7.78924 7.51132 7.06879 8.2107 6.69873 9.26279C6.52908 9.74512 6.44574 10.2459 6.42444 10.7534C6.38925 11.592 6.3591 12.4315 6.35492 13.2706C6.34769 14.7218 6.35383 16.173 6.37091 17.6241C6.37872 18.2871 6.41474 18.9502 6.4588 19.6119C6.49357 20.1339 6.6198 20.6402 6.84497 21.1148C7.29367 22.0605 8.0415 22.6499 9.04413 22.931C9.60693 23.0888 10.1843 23.1365 10.764 23.1557C11.4609 23.1788 12.1585 23.1994 12.8557 23.1981C13.3362 23.1973 13.8168 23.1995 14.2973 23.2016C15.8113 23.2085 17.3253 23.2154 18.8382 23.127C19.3081 23.0995 19.7719 23.033 20.2199 22.8862C21.261 22.5449 21.9898 21.8703 22.3857 20.8447C22.5702 20.3667 22.6653 19.8675 22.6876 19.3604C22.7288 18.426 22.7479 17.4903 22.7671 16.555L22.7672 16.5507C22.7743 16.2012 22.7725 15.8515 22.7706 15.5018C22.7698 15.3438 22.769 15.1859 22.769 15.0279ZM9.40497 14.9972C9.42785 12.0574 11.8167 9.8695 14.5437 9.8648C17.3785 9.85992 19.6947 12.1705 19.6995 14.9962C19.7042 17.7174 17.5187 20.1353 14.5544 20.1374C11.7134 20.1395 9.4228 17.8652 9.40497 14.9972ZM11.2208 15.005C11.206 16.8497 12.7473 18.3313 14.548 18.3333C16.3833 18.3354 17.893 16.8295 17.8914 14.9977C17.8899 13.1877 16.4043 11.6739 14.5604 11.6698C12.7367 11.6658 11.2021 13.163 11.2208 15.005ZM21.1 9.67518C21.106 8.99936 20.5828 8.46898 19.9078 8.46678C19.2436 8.46462 18.7091 8.98902 18.7039 9.6474C18.6987 10.3148 19.2344 10.8578 19.8995 10.8592C20.5626 10.8606 21.0941 10.3365 21.1 9.67518Z" fill="#666666"/>
</svg>
