<svg width="30" height="31" viewBox="0 0 30 31" fill="none" xmlns="http://www.w3.org/2000/svg">
<path d="M25 13.4884V14.5079C24.9887 14.5664 24.972 14.6243 24.9668 14.6834C24.891 15.5527 24.6539 16.3725 24.2779 17.1502C23.6913 18.3633 22.8425 19.3622 21.9031 20.2803C20.5314 21.6208 19.0249 22.7831 17.4501 23.8459C16.6872 24.3609 15.8932 24.8266 15.1023 25.2944C14.9222 25.4009 14.6999 25.4494 14.4912 25.4781C14.2526 25.5108 14.1238 25.3761 14.1206 25.1207C14.1185 24.9594 14.1539 24.7976 14.1703 24.6358C14.2175 24.1709 14.2752 23.7067 14.306 23.2406C14.3254 22.9474 14.1802 22.7286 13.9193 22.6175C13.7282 22.5361 13.5296 22.4682 13.3289 22.4181C12.6537 22.2498 11.9614 22.1406 11.3023 21.9213C9.3601 21.2749 7.68823 20.1789 6.47309 18.4402C4.89473 16.1818 4.54674 13.7249 5.61367 11.1294C6.39334 9.23281 7.76625 7.88509 9.48329 6.91579C11.7501 5.63617 14.1748 5.24903 16.7142 5.61355C18.8171 5.91542 20.7071 6.74104 22.317 8.2065C23.5167 9.29862 24.3794 10.6262 24.7808 12.2505C24.8809 12.6558 24.9283 13.0754 25 13.4884ZM16.8823 14.6549C16.8083 14.5555 16.7684 14.5043 16.731 14.4511C16.1149 13.5754 15.4997 12.6989 14.8828 11.8238C14.6987 11.5626 14.497 11.4783 14.2665 11.5585C14.0205 11.6441 13.9043 11.8328 13.904 12.1632C13.9027 13.4953 13.9033 14.8273 13.9038 16.1594C13.9039 16.2205 13.9051 16.2821 13.9132 16.3424C13.9471 16.595 14.148 16.7854 14.3905 16.7981C14.7145 16.815 14.9404 16.5828 14.9432 16.2087C14.9486 15.4612 14.945 14.7135 14.9452 13.9659C14.9452 13.8952 14.9452 13.8244 14.9452 13.7536C15.0344 13.8083 15.0811 13.8721 15.1265 13.9369C15.7293 14.7976 16.3267 15.6625 16.9401 16.5148C17.0293 16.6388 17.1844 16.7542 17.3266 16.7847C17.6785 16.8604 17.9321 16.5919 17.9326 16.1816C17.9344 14.8427 17.9336 13.5039 17.9323 12.165C17.9322 12.091 17.9269 12.0148 17.9092 11.9436C17.8442 11.6827 17.625 11.5163 17.3754 11.5309C17.1376 11.5448 16.9333 11.7335 16.8915 11.9857C16.8794 12.0586 16.8826 12.1347 16.8826 12.2094C16.882 13.0038 16.8823 13.7982 16.8823 14.6549ZM19.6923 12.6304C20.1775 12.6304 20.6386 12.633 21.0997 12.6295C21.4301 12.6269 21.6587 12.402 21.6628 12.0856C21.6669 11.7643 21.431 11.5312 21.0928 11.5301C20.4686 11.5279 19.8445 11.528 19.2203 11.5299C18.845 11.5311 18.6364 11.743 18.6358 12.1306C18.6337 13.4893 18.6337 14.8481 18.6359 16.2068C18.6365 16.586 18.841 16.7988 19.2049 16.8008C19.8291 16.8042 20.4532 16.8035 21.0774 16.8011C21.4277 16.7997 21.6574 16.5848 21.6621 16.2627C21.6668 15.9334 21.4331 15.7063 21.0736 15.702C20.6835 15.6972 20.2934 15.7008 19.9033 15.7008C19.8347 15.7007 19.7661 15.7007 19.701 15.7007V14.7169C20.1603 14.7169 20.6017 14.7179 21.0431 14.7166C21.4233 14.7155 21.6598 14.5058 21.6624 14.171C21.665 13.8296 21.4226 13.6149 21.0319 13.614C20.6873 13.6132 20.3427 13.6138 19.9981 13.6138C19.8969 13.6138 19.7956 13.6138 19.6923 13.6138V12.6304ZM9.63304 15.701C9.63304 15.5997 9.63304 15.5266 9.63304 15.4534C9.63303 14.3807 9.6332 13.308 9.63267 12.2353C9.63263 12.154 9.63406 12.0717 9.6238 11.9914C9.59187 11.7414 9.38899 11.5478 9.14862 11.5313C8.90064 11.5143 8.6648 11.6866 8.61073 11.9365C8.58951 12.0346 8.58698 12.1386 8.58686 12.2399C8.58537 13.523 8.58558 14.8062 8.58651 16.0894C8.58658 16.1773 8.58848 16.2665 8.60228 16.353C8.64178 16.6003 8.82869 16.7921 9.06777 16.795C9.7628 16.8034 10.4581 16.8047 11.1531 16.7932C11.4113 16.7889 11.6062 16.552 11.6164 16.2815C11.6291 15.9471 11.4017 15.7079 11.0486 15.7027C10.588 15.6959 10.1273 15.701 9.63304 15.701ZM13.149 14.1816C13.149 13.5292 13.1495 12.8767 13.1488 12.2242C13.1483 11.7819 12.9626 11.5333 12.6328 11.5304C12.2952 11.5275 12.1062 11.7787 12.1061 12.234C12.1056 13.5253 12.1058 14.8167 12.1062 16.1081C12.1062 16.1759 12.1066 16.2442 12.1135 16.3116C12.1444 16.6128 12.373 16.8148 12.6613 16.7986C12.9514 16.7823 13.1453 16.5513 13.1475 16.2002C13.1517 15.5274 13.1487 14.8545 13.149 14.1816Z" fill="#666666"/>
</svg>
