<svg width="30" height="30" viewBox="0 0 30 30" fill="none" xmlns="http://www.w3.org/2000/svg">
<path d="M14.6114 25.864C14.2224 25.3345 13.8368 24.8025 13.4438 24.276C11.8569 22.1503 10.273 20.0222 8.67744 17.9029C7.53475 16.3851 6.9256 14.6851 7.00728 12.7863C7.13843 9.73511 8.55042 7.40389 11.2356 5.96457C15.3737 3.74641 20.3882 5.49086 22.272 9.7943C23.4783 12.5503 23.1789 15.2382 21.4225 17.6803C19.4779 20.3843 17.4464 23.0257 15.4532 25.6948C15.4132 25.7484 15.3805 25.8074 15.3445 25.864H14.6114ZM14.9815 10.3477C13.5287 10.3464 12.3357 11.5316 12.331 12.9807C12.3262 14.4443 13.5143 15.6403 14.9743 15.6417C16.4276 15.643 17.6198 14.4586 17.6249 13.0082C17.6301 11.5444 16.4424 10.349 14.9815 10.3477Z" fill="#666666"/>
</svg>
