<svg width="30" height="31" viewBox="0 0 30 31" fill="none" xmlns="http://www.w3.org/2000/svg">
<path d="M27.5 21.8549C27.3599 22.1982 27.2694 22.5743 27.0693 22.8777C26.6741 23.4769 26.0673 23.742 25.3582 23.7749C25.3105 23.7771 25.2626 23.7763 25.2147 23.7763C18.574 23.7763 11.9333 23.7757 5.29269 23.777C4.53808 23.7772 3.90819 23.5184 3.44059 22.908C3.13772 22.5125 3.00341 22.0577 3.0031 21.5654C3.00076 17.2757 2.9967 12.986 3.00486 8.69633C3.00727 7.39834 3.95355 6.48604 5.26719 6.4846C8.01758 6.4815 10.7679 6.48362 13.5183 6.48362C17.4166 6.48362 21.3149 6.48337 25.2132 6.48374C26.1487 6.48382 26.8593 6.87302 27.2811 7.72569C27.3854 7.93653 27.4287 8.17774 27.5 8.40503V21.8549ZM5.47727 7.9302C5.54914 8.00834 5.58878 8.05474 5.63181 8.09779C8.30527 10.7681 10.9769 13.4403 13.6539 16.1071C14.6143 17.0641 15.8969 17.0562 16.8623 16.0934C19.5267 13.4366 22.188 10.7766 24.85 8.11741C24.9016 8.0658 24.9475 8.00849 25.0171 7.9302H5.47727ZM5.6143 22.3148H24.8792C22.905 20.2928 20.8868 18.2256 18.8406 16.1297C18.4875 16.4912 18.1662 16.834 17.8301 17.1615C16.8151 18.1504 15.6188 18.4768 14.2484 18.1116C13.6171 17.9434 13.0901 17.5904 12.6343 17.1265C12.3166 16.8032 12.0007 16.4781 11.658 16.1272C9.61038 18.2236 7.59195 20.2901 5.6143 22.3148ZM10.4839 15.1711C8.4937 13.1411 6.47022 11.0771 4.45565 9.02224V21.3365C6.52118 19.224 8.5408 17.1584 10.4839 15.1711ZM26.0556 9.00936L26.0031 8.97524C23.9756 11.0424 21.9481 13.1095 19.9127 15.1849C21.9314 17.1986 23.9772 19.2395 26.0556 21.3129V9.00936Z" fill="#666666"/>
</svg>
