<svg width="30" height="31" viewBox="0 0 30 31" fill="none" xmlns="http://www.w3.org/2000/svg">
<path d="M19.3359 24.5204C18.872 24.4204 18.4018 24.343 17.9454 24.2156C17.0045 23.953 16.1285 23.531 15.2856 23.0439C12.895 21.6626 10.8521 19.8645 9.03923 17.7955C7.86318 16.4531 6.83583 15.0071 6.04307 13.4033C5.55538 12.4167 5.17141 11.3924 5.04013 10.2916C4.95769 9.60048 4.98028 8.91356 5.31929 8.28119C5.42601 8.08209 5.56497 7.89181 5.72223 7.72966C6.27434 7.16034 6.84638 6.61029 7.40067 6.04301C8.16962 5.2561 9.36348 5.33697 10.0896 6.04444C10.955 6.88767 11.8063 7.74559 12.654 8.60671C13.4009 9.36546 13.4065 10.5023 12.665 11.1944C12.5066 11.3422 12.3037 11.4595 12.1011 11.5395C11.5829 11.7439 11.1739 12.0548 10.9486 12.577C10.7985 12.9249 10.778 13.2797 10.8762 13.6471C11.1522 14.6807 11.7393 15.5314 12.4446 16.3092C13.1786 17.1187 14.0099 17.8088 14.9987 18.29C15.4342 18.502 15.8826 18.6903 16.3855 18.6247C17.0672 18.5357 17.5861 18.207 17.8558 17.5569C18.0226 17.1545 18.2193 16.7861 18.6028 16.5461C19.3207 16.0967 20.2054 16.1783 20.8392 16.7957C21.7314 17.6646 22.6143 18.5438 23.4814 19.4378C24.1919 20.1704 24.1654 21.3384 23.4448 22.0715C22.8759 22.6504 22.297 23.2197 21.724 23.7947C21.3178 24.2023 20.8184 24.4089 20.2567 24.4851C20.2094 24.4915 20.1635 24.5084 20.1169 24.5204H19.3359Z" fill="#666666"/>
</svg>
