<svg width="1440" height="603" viewBox="0 0 1440 603" fill="none" xmlns="http://www.w3.org/2000/svg">
<g opacity="0.3">
<path d="M-428.282 504.935C-432.589 466.23 -408.849 428.294 -380.24 392.978C-303.569 298.332 -189.597 213.812 -54.894 142.206C20.7864 101.975 104.051 65.3263 198.814 40.7436C293.577 16.1609 394.425 -15.2194 488.958 10.2529C583.491 35.7252 604.335 114.409 603.549 179.437C602.764 244.466 469.656 444.952 603.831 461.446C664.678 468.926 736.654 461.95 863.362 347.883C973.763 248.497 1095.33 189.036 1164.5 234.427C1296.09 320.789 1161.8 368.927 1189.19 428.733C1192.31 435.547 1196.98 442.411 1205.96 447.343C1225.51 458.079 1257.51 456.12 1283.8 451.819C1354.75 440.213 1419.31 416.732 1467 385.187" stroke="url(#paint0_linear_514_5912)" stroke-miterlimit="10"/>
<path d="M-414.729 507.443C-412.899 465.323 -390.648 423.369 -355.244 385.536C-273.792 298.494 -167.266 211.376 -34.9048 142.594C40.0578 103.64 122.519 68.936 215.072 46.0653C307.73 23.3075 404.957 -5.8131 495.893 19.9564C586.872 45.6371 606.405 122.793 604.88 186.702C603.404 250.548 473.737 446.124 604.487 462.803C663.771 470.359 734.828 464.044 860.965 353.283C971.491 256.711 1091.02 197.818 1160.98 241.924C1291.63 324.3 1162.75 373.147 1192.01 431.697C1195.7 439.08 1200.72 446.604 1210.18 452C1229.08 462.773 1260.34 460.759 1286.02 456.656C1355.36 445.587 1418.34 422.331 1464.62 391.398" stroke="url(#paint1_linear_514_5912)" stroke-width="0.983871" stroke-miterlimit="10"/>
<path d="M-401.176 509.952C-393.209 464.416 -372.845 418.752 -330.249 378.094C-245.884 297.569 -144.922 208.951 -14.9157 142.983C59.3357 105.306 140.987 72.5456 231.331 51.387C321.883 30.4541 415.489 3.59318 502.827 29.6599C590.253 55.549 608.475 131.176 606.21 193.966C604.044 256.63 477.818 447.297 605.142 464.16C662.864 471.793 732.74 465.831 858.568 358.683C968.989 264.655 1086.68 206.602 1157.46 249.422C1287.1 327.855 1164.02 377.271 1194.84 434.66C1199.12 442.619 1204.44 450.791 1214.4 456.656C1232.67 467.42 1263.16 465.399 1288.24 461.492C1355.96 450.96 1417.37 427.93 1462.23 397.61" stroke="url(#paint2_linear_514_5912)" stroke-width="0.967742" stroke-miterlimit="10"/>
<path d="M-387.623 512.461C-373.519 463.509 -355.344 414.294 -305.253 370.652C-219.255 295.728 -122.565 206.536 5.0733 143.372C78.6202 106.975 159.412 75.9612 247.589 56.7085C335.994 37.4061 426.022 12.9993 509.762 39.3632C593.633 65.4607 610.546 139.559 607.541 201.23C604.684 262.712 481.898 448.47 605.797 465.517C661.958 473.226 730.798 467.777 856.171 364.082C966.614 272.736 1082.31 215.39 1153.94 256.919C1282.5 331.461 1165.52 381.309 1197.67 437.624C1202.54 446.162 1208.17 454.974 1218.61 461.313C1236.27 472.027 1265.98 470.038 1290.45 466.328C1356.57 456.334 1416.39 433.53 1459.85 403.821" stroke="url(#paint3_linear_514_5912)" stroke-width="0.951613" stroke-miterlimit="10"/>
<path d="M-374.07 514.969C-353.829 462.602 -338.079 409.901 -280.257 363.21C-193.504 293.158 -100.194 204.133 25.0624 143.76C97.9118 108.648 177.87 79.5078 263.848 62.0301C350.137 44.4891 436.492 22.5915 516.697 49.0668C596.953 75.5589 612.616 147.942 608.871 208.494C605.324 268.794 485.979 449.642 606.452 466.873C661.051 474.66 728.867 469.727 853.774 369.482C964.249 280.821 1077.91 224.184 1150.42 264.417C1277.84 335.119 1167.21 385.272 1200.5 440.587C1205.98 449.705 1211.89 459.152 1222.83 465.97C1239.9 476.602 1268.81 474.678 1292.67 471.165C1357.17 461.707 1415.42 439.129 1457.47 410.032" stroke="url(#paint4_linear_514_5912)" stroke-width="0.935484" stroke-miterlimit="10"/>
<path d="M-360.517 517.478C-334.138 461.695 -329.059 392.518 -255.261 355.768C-181.998 275.105 -77.81 201.743 45.0516 144.149C117.211 110.323 196.331 83.0555 280.107 67.3518C364.283 51.573 447.005 32.0434 523.632 58.7703C600.315 85.5165 614.686 156.326 610.202 215.758C605.964 274.875 490.059 450.815 607.108 468.23C660.144 476.093 726.946 471.682 851.377 374.882C961.892 288.908 1073.47 232.986 1146.9 271.914C1273.12 338.831 1169.05 389.17 1203.32 443.551C1209.43 453.246 1215.61 463.325 1227.05 470.626C1243.53 481.148 1271.63 479.318 1294.89 476.001C1357.78 467.081 1414.45 444.728 1455.08 416.244" stroke="url(#paint5_linear_514_5912)" stroke-width="0.919355" stroke-miterlimit="10"/>
<path d="M-346.964 519.987C-314.448 460.788 -313.102 385.363 -230.265 348.326C-157.684 270.46 -55.4119 199.367 65.0406 144.538C136.517 112.002 214.793 86.6043 296.365 72.6733C378.431 58.658 457.516 41.4946 530.567 68.4736C603.674 95.4735 616.626 164.697 611.532 223.022C606.474 280.946 494.14 451.988 607.763 469.587C659.237 477.527 725.036 473.642 848.98 380.282C959.544 296.999 1069.01 241.8 1143.38 279.411C1268.33 342.603 1171.01 393.011 1206.15 446.514C1212.89 456.784 1219.33 467.495 1231.26 475.283C1247.18 485.671 1274.45 483.957 1297.1 480.837C1358.38 472.454 1413.48 450.327 1452.7 422.455" stroke="url(#paint6_linear_514_5912)" stroke-width="0.903226" stroke-miterlimit="10"/>
<path d="M-333.411 522.495C-294.758 459.882 -297.144 378.208 -205.269 340.884C-133.37 265.814 -32.9993 197.006 85.0297 144.927C155.831 113.686 233.259 90.1549 312.624 77.9952C392.582 65.7445 468.024 50.945 537.502 78.1771C607.032 105.43 618.678 173.077 612.863 230.286C607.096 287.025 498.22 453.16 608.418 470.944C658.33 478.96 723.138 475.609 846.583 385.681C957.206 305.094 1064.51 250.627 1139.86 286.909C1263.48 346.436 1173.06 396.803 1208.98 449.478C1216.37 460.317 1223.05 471.66 1235.48 479.94C1250.84 490.173 1277.28 488.597 1299.32 485.674C1358.99 477.828 1412.5 455.927 1450.31 428.667" stroke="url(#paint7_linear_514_5912)" stroke-width="0.887097" stroke-miterlimit="10"/>
<path d="M-319.858 525.004C-275.068 458.975 -281.186 371.053 -180.274 333.442C-109.056 261.169 -10.5718 194.661 105.019 145.315C175.153 115.375 251.727 93.7071 328.882 83.3167C406.736 72.8323 478.53 60.3943 544.436 87.8804C610.387 115.385 620.731 181.456 614.193 237.551C607.719 293.103 502.301 454.333 609.073 472.301C657.423 480.393 721.251 477.583 844.185 391.081C954.878 313.194 1059.98 259.473 1136.34 294.406C1258.57 350.332 1175.18 400.552 1211.8 452.441C1219.85 463.845 1226.77 475.82 1239.7 484.597C1254.52 494.657 1280.1 493.236 1301.54 490.51C1359.6 483.201 1411.53 461.526 1447.93 434.878" stroke="url(#paint8_linear_514_5912)" stroke-width="0.870968" stroke-miterlimit="10"/>
<path d="M-306.305 527.512C-255.378 458.068 -265.228 363.898 -155.278 326C-84.7417 256.524 11.8708 192.333 125.008 145.704C194.483 117.07 270.198 97.2612 345.141 88.6381C420.893 79.9219 489.033 69.8423 551.371 97.5839C613.739 125.339 622.785 189.834 615.524 244.814C608.344 299.18 506.381 455.505 609.729 473.658C656.517 481.827 719.375 479.564 841.788 396.481C952.559 321.3 1055.43 268.338 1132.82 301.903C1253.61 354.293 1177.36 404.262 1214.63 455.405C1223.35 467.367 1230.5 479.976 1243.92 489.253C1258.2 499.126 1282.92 497.876 1303.76 495.346C1360.2 488.575 1410.56 467.125 1445.55 441.089" stroke="url(#paint9_linear_514_5912)" stroke-width="0.854839" stroke-miterlimit="10"/>
<path d="M-292.752 530.021C-235.688 457.161 -249.27 356.743 -130.282 318.559C-60.4275 251.878 34.3287 190.024 144.997 146.093C213.822 118.772 288.672 100.818 361.399 93.9599C435.053 87.0141 499.533 79.2883 558.306 107.287C617.088 135.291 624.841 198.212 616.855 252.079C608.97 305.257 510.462 456.678 610.384 475.014C655.61 483.26 717.51 481.554 839.391 401.881C950.25 329.412 1050.84 277.228 1129.3 309.4C1248.6 358.323 1179.6 407.938 1217.46 458.368C1226.85 470.882 1234.22 484.127 1248.13 493.91C1261.89 503.581 1285.75 502.515 1305.97 500.183C1360.81 493.948 1409.59 472.724 1443.16 447.3" stroke="url(#paint10_linear_514_5912)" stroke-width="0.83871" stroke-miterlimit="10"/>
<path d="M-279.199 532.53C-215.998 456.254 -233.312 349.588 -105.286 311.117C-36.1134 247.233 56.8022 187.735 164.986 146.482C233.17 120.481 307.149 104.378 377.658 99.2816C449.217 94.109 510.03 88.7322 565.241 116.991C620.435 145.241 626.899 206.59 618.185 259.343C609.597 311.334 514.543 457.851 611.039 476.371C654.703 484.694 715.657 483.554 836.994 407.281C947.95 337.533 1046.23 286.147 1125.78 316.898C1243.54 362.421 1181.87 411.584 1220.28 461.332C1230.37 474.39 1237.95 488.273 1252.35 498.567C1265.58 508.025 1288.57 507.155 1308.19 505.019C1361.41 499.322 1408.62 478.323 1440.78 453.512" stroke="url(#paint11_linear_514_5912)" stroke-width="0.822581" stroke-miterlimit="10"/>
<path d="M-265.646 535.039C-196.308 455.347 -217.354 342.433 -80.2903 303.675C-11.7993 242.588 79.2914 185.468 184.975 146.87C252.526 122.199 325.63 107.941 393.917 104.603C463.384 101.207 520.523 98.173 572.176 126.694C623.777 155.187 628.958 214.967 619.516 266.607C610.226 317.41 518.623 459.023 611.694 477.728C653.796 486.127 713.815 485.564 834.597 412.68C945.661 345.661 1041.59 295.096 1122.25 324.395C1238.43 366.591 1184.18 415.202 1223.11 464.295C1233.89 477.889 1241.68 492.413 1256.57 503.223C1269.29 512.458 1291.39 511.795 1310.41 509.856C1362.02 504.695 1407.64 483.923 1438.4 459.723" stroke="url(#paint12_linear_514_5912)" stroke-width="0.806452" stroke-miterlimit="10"/>
<path d="M-252.092 537.547C-176.618 454.44 -201.396 335.278 -55.2945 296.233C12.5148 237.943 101.796 183.223 204.964 147.259C271.892 123.928 344.114 111.509 410.175 109.925C477.554 108.309 531.012 107.61 579.111 136.398C627.117 165.13 631.018 223.344 620.846 273.871C610.857 323.486 522.704 460.196 612.35 479.085C652.889 487.56 711.984 487.585 832.2 418.08C943.381 353.799 1036.92 304.081 1118.73 331.892C1233.28 370.831 1186.52 418.795 1225.94 467.258C1237.43 481.381 1245.41 496.548 1260.78 507.88C1273 516.882 1294.22 516.434 1312.62 514.692C1362.62 510.069 1406.67 489.522 1436.01 465.935" stroke="url(#paint13_linear_514_5912)" stroke-width="0.790323" stroke-miterlimit="10"/>
<path d="M-238.539 540.056C-156.928 453.533 -185.438 328.123 -30.2986 288.791C36.8289 233.297 124.317 181.004 224.953 147.648C291.267 125.668 362.624 113.523 426.434 115.246C491.705 117.01 541.497 117.042 586.045 146.101C630.452 175.068 633.081 231.721 622.177 281.135C611.49 329.562 526.784 461.369 613.005 480.442C651.982 488.994 710.164 489.618 829.803 423.48C941.111 361.947 1032.24 313.107 1115.21 339.39C1228.1 375.145 1188.88 422.367 1228.77 470.222C1240.97 484.864 1249.14 500.676 1265 512.537C1276.71 521.298 1297.04 521.074 1314.84 519.528C1363.23 515.442 1405.7 495.121 1433.63 472.146" stroke="url(#paint14_linear_514_5912)" stroke-width="0.774194" stroke-miterlimit="10"/>
<path d="M-224.986 542.564C-137.238 452.626 -169.48 320.968 -5.30286 281.349C61.143 228.652 146.853 178.811 244.942 148.036C310.651 127.421 381.092 118.659 442.692 120.568C505.906 122.527 551.978 126.467 592.98 155.804C633.783 184.999 635.145 240.098 623.507 288.399C612.125 335.638 530.865 462.541 613.66 481.798C651.076 490.427 708.354 491.664 827.406 428.879C938.85 370.106 1027.53 322.175 1111.69 346.887C1222.88 379.53 1191.25 425.916 1231.59 473.185C1244.52 488.338 1252.89 504.798 1269.22 517.193C1280.43 525.706 1299.86 525.713 1317.06 524.365C1363.83 520.816 1404.73 500.72 1431.25 478.357" stroke="url(#paint15_linear_514_5912)" stroke-width="0.758065" stroke-miterlimit="10"/>
<path d="M-211.433 545.073C-117.548 451.72 -153.523 313.813 19.693 273.907C85.4571 224.007 169.404 176.647 264.932 148.425C330.045 129.189 399.585 122.243 458.951 125.89C520.087 129.645 562.455 135.885 599.915 165.508C637.112 194.923 637.212 248.475 624.838 295.663C612.762 341.714 534.945 463.714 614.316 483.155C650.169 491.861 706.555 493.725 825.009 434.279C936.598 378.279 1022.8 331.293 1108.17 354.384C1217.63 383.989 1193.65 429.447 1234.42 476.149C1248.09 491.803 1256.63 508.911 1273.43 521.85C1284.16 530.109 1302.69 530.353 1319.27 529.201C1364.44 526.189 1403.75 506.319 1428.86 484.569" stroke="url(#paint16_linear_514_5912)" stroke-width="0.741935" stroke-miterlimit="10"/>
<path d="M-197.88 547.582C-97.8578 450.813 -137.565 306.658 44.6888 266.465C109.771 219.362 191.969 174.513 284.921 148.814C349.447 130.973 418.082 125.835 475.21 131.211C534.271 136.77 572.93 145.293 606.85 175.211C640.437 204.836 639.281 256.853 626.168 302.928C613.401 347.791 539.026 464.887 614.971 484.512C649.262 493.294 704.764 495.8 822.611 439.679C934.355 386.465 1018.05 340.464 1104.65 361.882C1212.36 388.52 1196.06 432.96 1237.25 479.113C1251.66 495.258 1260.39 513.017 1277.65 526.507C1287.89 534.505 1305.51 534.993 1321.49 534.038C1365.04 531.563 1402.78 511.919 1426.48 490.78" stroke="url(#paint17_linear_514_5912)" stroke-width="0.725806" stroke-miterlimit="10"/>
<path d="M-184.327 550.091C-78.1678 449.906 -121.607 299.503 69.6846 259.023C134.085 214.716 214.548 172.412 304.91 149.202C368.859 132.777 436.581 129.435 491.468 136.533C548.457 143.903 583.402 154.688 613.785 184.915C643.762 214.738 641.352 265.23 627.499 310.191C614.042 353.867 543.106 466.059 615.626 485.869C648.355 494.728 702.982 497.892 820.214 445.079C932.119 394.666 1013.29 349.692 1101.13 369.379C1207.08 393.123 1198.48 436.456 1240.07 482.076C1255.24 498.704 1264.15 517.113 1281.87 531.163C1291.62 538.896 1308.33 539.632 1323.71 538.874C1365.65 536.936 1401.81 517.518 1424.09 496.992" stroke="url(#paint18_linear_514_5912)" stroke-width="0.709677" stroke-miterlimit="10"/>
<path d="M-170.774 552.599C-58.4777 448.999 -105.649 292.348 94.6805 251.582C158.399 210.071 237.14 170.345 324.899 149.591C388.278 134.603 455.082 133.044 507.727 141.855C562.645 151.046 593.875 164.07 620.72 194.618C647.087 224.625 643.425 273.608 628.829 317.456C614.686 359.945 547.187 467.232 616.281 487.226C647.448 496.161 701.208 500 817.817 450.479C929.891 402.883 1008.52 358.983 1097.61 376.877C1201.78 397.797 1200.9 439.936 1242.9 485.04C1258.83 502.14 1267.91 521.199 1286.08 535.82C1295.36 543.283 1311.16 544.272 1325.92 543.711C1366.25 542.31 1400.84 523.117 1421.71 503.203" stroke="url(#paint19_linear_514_5912)" stroke-width="0.693548" stroke-miterlimit="10"/>
<path d="M-157.221 555.108C-38.7877 448.092 -89.691 285.193 119.676 244.14C182.714 205.426 259.743 168.315 344.888 149.98C407.706 136.453 473.583 136.664 523.985 147.176C576.834 158.199 604.352 173.434 627.655 204.322C650.418 234.495 645.501 281.987 630.16 324.72C615.332 366.023 551.267 468.405 616.937 488.583C646.541 497.595 699.44 502.127 815.42 455.878C927.67 411.117 1003.74 368.341 1094.09 384.374C1196.47 402.54 1203.34 443.402 1245.73 488.003C1262.42 505.566 1271.69 525.273 1290.3 540.477C1299.1 547.666 1313.98 548.911 1328.14 548.547C1366.86 547.683 1399.87 528.716 1419.33 509.414" stroke="url(#paint20_linear_514_5912)" stroke-width="0.677419" stroke-miterlimit="10"/>
<path d="M-143.668 557.616C-19.0976 447.185 -63.764 313.926 144.672 236.698C212.15 211.697 282.355 166.323 364.877 150.369C427.14 138.331 492.084 140.295 540.244 152.498C591.023 165.364 614.839 182.781 634.589 214.025C653.758 244.348 647.58 290.367 631.49 331.984C615.98 372.101 555.348 469.577 617.592 489.94C645.635 499.028 697.679 504.272 813.023 461.278C925.455 419.37 998.956 377.771 1090.57 391.871C1191.16 407.352 1205.77 446.854 1248.56 490.967C1266.03 508.981 1275.48 529.333 1294.52 545.133C1302.84 552.044 1316.8 553.551 1330.36 553.383C1367.47 553.057 1398.89 534.315 1416.94 515.626" stroke="url(#paint21_linear_514_5912)" stroke-width="0.66129" stroke-miterlimit="10"/>
<path d="M-130.115 560.125C0.592453 446.278 -48.5528 305.694 169.668 229.256C235.737 206.113 304.975 164.372 384.866 150.757C446.58 140.24 510.582 143.939 556.503 157.819C605.209 172.542 625.341 192.112 641.524 223.728C657.114 254.185 649.661 298.748 632.821 339.248C616.632 378.181 559.429 470.75 618.247 491.297C644.728 500.461 695.921 506.436 810.626 466.678C923.244 427.642 994.171 387.278 1087.05 399.368C1185.86 412.23 1208.22 450.292 1251.38 493.93C1269.64 512.387 1279.29 533.378 1298.73 549.79C1306.59 556.42 1319.63 558.191 1332.58 558.219C1368.07 558.43 1397.92 539.915 1414.56 521.837" stroke="url(#paint22_linear_514_5912)" stroke-width="0.645161" stroke-miterlimit="10"/>
<path d="M-116.562 562.634C20.2825 445.371 -33.4312 296.998 194.664 221.814C259.355 200.491 327.599 162.464 404.855 151.146C466.024 142.184 529.077 147.596 572.761 163.141C619.391 179.734 635.865 201.428 648.459 233.432C660.491 264.008 651.746 307.131 634.151 346.512C617.286 384.263 563.509 471.923 618.902 492.654C643.821 501.895 694.167 508.621 808.229 472.078C921.037 435.936 989.392 396.866 1083.53 406.866C1180.57 417.173 1210.66 453.718 1254.21 496.894C1273.26 515.782 1283.11 537.406 1302.95 554.447C1310.34 560.794 1322.45 562.83 1334.79 563.056C1368.68 563.804 1396.95 545.514 1412.18 528.049" stroke="url(#paint23_linear_514_5912)" stroke-width="0.629032" stroke-miterlimit="10"/>
<path d="M-103.009 565.142C39.9726 444.464 -18.3916 287.802 219.66 214.372C283.01 194.831 350.225 160.601 424.844 151.535C485.47 144.168 547.564 151.266 589.02 168.463C633.566 186.941 646.418 210.736 655.394 243.135C663.895 273.823 653.833 315.515 635.482 353.776C617.942 390.346 567.59 473.095 619.558 494.01C642.914 503.328 692.415 510.826 805.832 477.477C918.832 444.251 984.621 406.539 1080.01 414.363C1175.29 422.177 1213.11 457.132 1257.04 499.857C1276.89 519.166 1286.95 541.414 1307.17 559.103C1314.09 565.164 1325.27 567.47 1337.01 567.892C1369.28 569.177 1395.98 551.113 1409.79 534.26" stroke="url(#paint24_linear_514_5912)" stroke-width="0.612903" stroke-miterlimit="10"/>
<path d="M-89.4556 567.651C59.6626 443.558 -3.42409 278.07 244.655 206.93C306.708 189.135 372.849 158.785 444.833 151.924C504.915 146.197 566.043 154.95 605.278 173.784C647.73 194.163 657.004 220.046 662.329 252.839C667.33 283.64 655.923 323.902 636.813 361.04C618.601 396.432 571.67 474.268 620.213 495.367C642.007 504.762 690.663 513.052 803.435 482.877C916.627 452.589 979.864 416.303 1076.49 421.861C1170.03 427.241 1215.56 460.535 1259.86 502.821C1280.53 522.54 1290.81 545.397 1311.38 563.76C1317.85 569.533 1328.1 572.11 1339.23 572.729C1369.89 574.551 1395 556.713 1407.41 540.471" stroke="url(#paint25_linear_514_5912)" stroke-width="0.596774" stroke-miterlimit="10"/>
<path d="M-75.9026 570.16C79.3527 442.651 11.4845 267.765 269.651 199.488C330.456 183.407 395.465 157.017 464.822 152.312C524.356 148.274 584.509 158.646 621.537 179.106C661.881 201.398 667.622 229.368 669.264 262.543C670.794 293.469 658.015 332.292 638.143 368.305C619.263 402.52 575.751 475.44 620.868 496.724C641.101 506.195 688.909 515.301 801.038 488.277C914.422 460.951 975.794 417.515 1072.97 429.358C1164.18 440.473 1218 463.927 1262.69 505.784C1284.17 525.903 1294.71 549.353 1315.6 568.417C1321.61 573.901 1330.92 576.749 1341.44 577.565C1370.49 579.924 1394.03 562.312 1405.03 546.683" stroke="url(#paint26_linear_514_5912)" stroke-width="0.580645" stroke-miterlimit="10"/>
<path d="M-62.3495 572.669C99.0427 441.744 26.3504 256.852 294.647 192.046C354.261 177.647 418.069 155.297 484.812 152.701C543.789 150.407 602.959 162.353 637.795 184.428C676.015 208.647 678.267 238.711 676.198 272.246C674.282 303.319 660.11 340.684 639.474 375.568C619.927 408.61 579.831 476.613 621.524 498.081C640.194 507.629 687.151 517.57 798.64 493.677C912.215 469.336 970.743 428.782 1069.45 436.855C1159.31 444.205 1220.45 467.307 1265.52 508.748C1287.82 529.256 1298.63 553.276 1319.82 573.074C1325.38 578.267 1333.74 581.389 1343.66 582.401C1371.1 585.298 1393.06 567.911 1402.64 552.894" stroke="url(#paint27_linear_514_5912)" stroke-width="0.564516" stroke-miterlimit="10"/>
<path d="M-48.7964 575.177C118.733 440.837 41.1937 245.295 319.643 184.604C378.127 171.857 440.704 150.5 504.801 153.09C563.163 155.448 621.392 166.067 654.054 189.749C690.129 215.905 688.93 248.084 683.133 281.949C677.785 313.196 662.208 349.079 640.804 382.833C620.594 414.704 583.912 477.786 622.179 499.438C639.287 509.062 685.389 519.862 796.243 499.076C910.003 477.746 965.8 440.355 1065.93 444.353C1154.4 447.884 1222.9 470.678 1268.35 511.711C1291.48 532.598 1302.6 557.159 1324.03 577.73C1329.14 582.633 1336.57 586.028 1345.88 587.238C1371.7 590.671 1392.09 573.51 1400.26 559.105" stroke="url(#paint28_linear_514_5912)" stroke-width="0.548387" stroke-miterlimit="10"/>
<path d="M-35.2433 577.686C138.423 439.93 56.0382 233.066 344.639 177.162C402.063 166.039 463.213 152.008 524.79 153.479C582.609 154.86 639.804 169.787 670.313 195.071C704.219 223.171 699.6 257.486 690.068 291.653C681.294 323.102 664.308 357.478 642.135 390.097C621.262 420.801 587.992 478.958 622.834 500.795C638.38 510.496 683.618 522.175 793.846 504.476C907.785 486.182 961.096 456.319 1062.41 451.85C1149.35 448.015 1225.34 474.039 1271.17 514.675C1295.14 535.928 1306.62 560.994 1328.25 582.387C1332.91 586.999 1339.39 590.668 1348.09 592.074C1372.31 596.045 1391.12 579.109 1397.88 565.317" stroke="url(#paint29_linear_514_5912)" stroke-width="0.532258" stroke-miterlimit="10"/>
<path d="M-21.6903 580.194C158.113 439.023 70.9117 220.136 369.634 169.72C426.075 160.195 485.737 150.436 544.779 153.867C601.982 157.192 658.194 173.507 686.571 200.392C718.285 230.438 710.268 266.918 697.003 301.356C684.8 333.036 666.444 365.906 643.465 397.361C621.964 426.925 592.073 480.131 623.489 502.151C637.473 511.929 681.839 524.509 791.449 509.876C905.559 494.642 956.5 466.574 1058.89 459.347C1144.29 453.32 1227.78 477.391 1274 517.638C1298.82 539.249 1310.72 564.77 1332.47 587.043C1336.69 591.366 1342.21 595.307 1350.31 596.911C1372.91 601.418 1390.14 584.709 1395.49 571.528" stroke="url(#paint30_linear_514_5912)" stroke-width="0.516129" stroke-miterlimit="10"/>
<path d="M-8.13721 582.703C177.803 438.116 85.8459 206.487 394.63 162.279C450.169 154.327 508.216 148.911 564.768 154.256C621.319 159.601 676.561 177.224 702.83 205.714C732.325 237.704 720.927 276.373 703.938 311.06C688.298 342.992 668.515 374.289 644.796 404.625C622.604 433.007 596.154 481.304 624.145 503.508C636.566 513.362 680.048 526.864 789.052 515.276C903.322 503.128 951.956 476.93 1055.37 466.845C1139.29 458.66 1230.22 480.733 1276.83 520.602C1302.49 542.558 1314.9 568.474 1336.68 591.7C1340.47 595.735 1345.04 599.947 1352.53 601.747C1373.52 606.792 1389.17 590.308 1393.11 577.74" stroke="url(#paint31_linear_514_5912)" stroke-width="0.5" stroke-miterlimit="10"/>
</g>
<defs>
<linearGradient id="paint0_linear_514_5912" x1="1924.12" y1="116.854" x2="30.6173" y2="308.336" gradientUnits="userSpaceOnUse">
<stop stop-color="#EEB3CF"/>
<stop offset="0.5" stop-color="#88D0EE"/>
<stop offset="1" stop-color="#A3D4BC"/>
</linearGradient>
<linearGradient id="paint1_linear_514_5912" x1="1922.23" y1="124.375" x2="44.9676" y2="314.214" gradientUnits="userSpaceOnUse">
<stop stop-color="#EEB3CF"/>
<stop offset="0.5" stop-color="#88D0EE"/>
<stop offset="1" stop-color="#A3D4BC"/>
</linearGradient>
<linearGradient id="paint2_linear_514_5912" x1="1920.33" y1="131.857" x2="59.1362" y2="320.072" gradientUnits="userSpaceOnUse">
<stop stop-color="#EEB3CF"/>
<stop offset="0.5" stop-color="#88D0EE"/>
<stop offset="1" stop-color="#A3D4BC"/>
</linearGradient>
<linearGradient id="paint3_linear_514_5912" x1="1918.43" y1="139.262" x2="73.307" y2="325.851" gradientUnits="userSpaceOnUse">
<stop stop-color="#EEB3CF"/>
<stop offset="0.5" stop-color="#88D0EE"/>
<stop offset="1" stop-color="#A3D4BC"/>
</linearGradient>
<linearGradient id="paint4_linear_514_5912" x1="1916.53" y1="146.671" x2="87.4771" y2="331.635" gradientUnits="userSpaceOnUse">
<stop stop-color="#EEB3CF"/>
<stop offset="0.5" stop-color="#88D0EE"/>
<stop offset="1" stop-color="#A3D4BC"/>
</linearGradient>
<linearGradient id="paint5_linear_514_5912" x1="1914.62" y1="153.991" x2="101.633" y2="337.33" gradientUnits="userSpaceOnUse">
<stop stop-color="#EEB3CF"/>
<stop offset="0.5" stop-color="#88D0EE"/>
<stop offset="1" stop-color="#A3D4BC"/>
</linearGradient>
<linearGradient id="paint6_linear_514_5912" x1="1912.7" y1="161.236" x2="115.775" y2="342.95" gradientUnits="userSpaceOnUse">
<stop stop-color="#EEB3CF"/>
<stop offset="0.5" stop-color="#88D0EE"/>
<stop offset="1" stop-color="#A3D4BC"/>
</linearGradient>
<linearGradient id="paint7_linear_514_5912" x1="1910.77" y1="168.386" x2="129.901" y2="348.477" gradientUnits="userSpaceOnUse">
<stop stop-color="#EEB3CF"/>
<stop offset="0.5" stop-color="#88D0EE"/>
<stop offset="1" stop-color="#A3D4BC"/>
</linearGradient>
<linearGradient id="paint8_linear_514_5912" x1="1908.83" y1="175.415" x2="144.011" y2="353.883" gradientUnits="userSpaceOnUse">
<stop stop-color="#EEB3CF"/>
<stop offset="0.5" stop-color="#88D0EE"/>
<stop offset="1" stop-color="#A3D4BC"/>
</linearGradient>
<linearGradient id="paint9_linear_514_5912" x1="1906.87" y1="182.272" x2="158.099" y2="359.117" gradientUnits="userSpaceOnUse">
<stop stop-color="#EEB3CF"/>
<stop offset="0.5" stop-color="#88D0EE"/>
<stop offset="1" stop-color="#A3D4BC"/>
</linearGradient>
<linearGradient id="paint10_linear_514_5912" x1="1904.87" y1="188.755" x2="172.147" y2="363.978" gradientUnits="userSpaceOnUse">
<stop stop-color="#EEB3CF"/>
<stop offset="0.5" stop-color="#88D0EE"/>
<stop offset="1" stop-color="#A3D4BC"/>
</linearGradient>
<linearGradient id="paint11_linear_514_5912" x1="1902.83" y1="194.826" x2="186.149" y2="368.426" gradientUnits="userSpaceOnUse">
<stop stop-color="#EEB3CF"/>
<stop offset="0.5" stop-color="#88D0EE"/>
<stop offset="1" stop-color="#A3D4BC"/>
</linearGradient>
<linearGradient id="paint12_linear_514_5912" x1="1900.78" y1="200.731" x2="200.134" y2="372.71" gradientUnits="userSpaceOnUse">
<stop stop-color="#EEB3CF"/>
<stop offset="0.5" stop-color="#88D0EE"/>
<stop offset="1" stop-color="#A3D4BC"/>
</linearGradient>
<linearGradient id="paint13_linear_514_5912" x1="1898.71" y1="206.47" x2="214.099" y2="376.827" gradientUnits="userSpaceOnUse">
<stop stop-color="#EEB3CF"/>
<stop offset="0.5" stop-color="#88D0EE"/>
<stop offset="1" stop-color="#A3D4BC"/>
</linearGradient>
<linearGradient id="paint14_linear_514_5912" x1="1896.59" y1="211.695" x2="228.011" y2="380.43" gradientUnits="userSpaceOnUse">
<stop stop-color="#EEB3CF"/>
<stop offset="0.5" stop-color="#88D0EE"/>
<stop offset="1" stop-color="#A3D4BC"/>
</linearGradient>
<linearGradient id="paint15_linear_514_5912" x1="1894.52" y1="217.436" x2="241.974" y2="384.55" gradientUnits="userSpaceOnUse">
<stop stop-color="#EEB3CF"/>
<stop offset="0.5" stop-color="#88D0EE"/>
<stop offset="1" stop-color="#A3D4BC"/>
</linearGradient>
<linearGradient id="paint16_linear_514_5912" x1="1892.39" y1="222.671" x2="255.885" y2="388.164" gradientUnits="userSpaceOnUse">
<stop stop-color="#EEB3CF"/>
<stop offset="0.5" stop-color="#88D0EE"/>
<stop offset="1" stop-color="#A3D4BC"/>
</linearGradient>
<linearGradient id="paint17_linear_514_5912" x1="1890.26" y1="227.749" x2="269.779" y2="391.621" gradientUnits="userSpaceOnUse">
<stop stop-color="#EEB3CF"/>
<stop offset="0.5" stop-color="#88D0EE"/>
<stop offset="1" stop-color="#A3D4BC"/>
</linearGradient>
<linearGradient id="paint18_linear_514_5912" x1="1888.11" y1="232.68" x2="283.658" y2="394.93" gradientUnits="userSpaceOnUse">
<stop stop-color="#EEB3CF"/>
<stop offset="0.5" stop-color="#88D0EE"/>
<stop offset="1" stop-color="#A3D4BC"/>
</linearGradient>
<linearGradient id="paint19_linear_514_5912" x1="1885.94" y1="237.471" x2="297.521" y2="398.1" gradientUnits="userSpaceOnUse">
<stop stop-color="#EEB3CF"/>
<stop offset="0.5" stop-color="#88D0EE"/>
<stop offset="1" stop-color="#A3D4BC"/>
</linearGradient>
<linearGradient id="paint20_linear_514_5912" x1="1883.76" y1="242.13" x2="311.371" y2="401.139" gradientUnits="userSpaceOnUse">
<stop stop-color="#EEB3CF"/>
<stop offset="0.5" stop-color="#88D0EE"/>
<stop offset="1" stop-color="#A3D4BC"/>
</linearGradient>
<linearGradient id="paint21_linear_514_5912" x1="1881.57" y1="246.664" x2="325.208" y2="404.053" gradientUnits="userSpaceOnUse">
<stop stop-color="#EEB3CF"/>
<stop offset="0.5" stop-color="#88D0EE"/>
<stop offset="1" stop-color="#A3D4BC"/>
</linearGradient>
<linearGradient id="paint22_linear_514_5912" x1="1879.37" y1="251.079" x2="339.032" y2="406.847" gradientUnits="userSpaceOnUse">
<stop stop-color="#EEB3CF"/>
<stop offset="0.5" stop-color="#88D0EE"/>
<stop offset="1" stop-color="#A3D4BC"/>
</linearGradient>
<linearGradient id="paint23_linear_514_5912" x1="1877.16" y1="255.378" x2="352.844" y2="409.525" gradientUnits="userSpaceOnUse">
<stop stop-color="#EEB3CF"/>
<stop offset="0.5" stop-color="#88D0EE"/>
<stop offset="1" stop-color="#A3D4BC"/>
</linearGradient>
<linearGradient id="paint24_linear_514_5912" x1="1874.93" y1="259.56" x2="366.644" y2="412.087" gradientUnits="userSpaceOnUse">
<stop stop-color="#EEB3CF"/>
<stop offset="0.5" stop-color="#88D0EE"/>
<stop offset="1" stop-color="#A3D4BC"/>
</linearGradient>
<linearGradient id="paint25_linear_514_5912" x1="1872.7" y1="263.622" x2="380.431" y2="414.529" gradientUnits="userSpaceOnUse">
<stop stop-color="#EEB3CF"/>
<stop offset="0.5" stop-color="#88D0EE"/>
<stop offset="1" stop-color="#A3D4BC"/>
</linearGradient>
<linearGradient id="paint26_linear_514_5912" x1="1870.45" y1="267.563" x2="394.206" y2="416.849" gradientUnits="userSpaceOnUse">
<stop stop-color="#EEB3CF"/>
<stop offset="0.5" stop-color="#88D0EE"/>
<stop offset="1" stop-color="#A3D4BC"/>
</linearGradient>
<linearGradient id="paint27_linear_514_5912" x1="1868.19" y1="271.352" x2="407.965" y2="419.018" gradientUnits="userSpaceOnUse">
<stop stop-color="#EEB3CF"/>
<stop offset="0.5" stop-color="#88D0EE"/>
<stop offset="1" stop-color="#A3D4BC"/>
</linearGradient>
<linearGradient id="paint28_linear_514_5912" x1="1865.85" y1="274.324" x2="421.642" y2="420.37" gradientUnits="userSpaceOnUse">
<stop stop-color="#EEB3CF"/>
<stop offset="0.5" stop-color="#88D0EE"/>
<stop offset="1" stop-color="#A3D4BC"/>
</linearGradient>
<linearGradient id="paint29_linear_514_5912" x1="1863.6" y1="278.173" x2="435.407" y2="422.599" gradientUnits="userSpaceOnUse">
<stop stop-color="#EEB3CF"/>
<stop offset="0.5" stop-color="#88D0EE"/>
<stop offset="1" stop-color="#A3D4BC"/>
</linearGradient>
<linearGradient id="paint30_linear_514_5912" x1="1861.23" y1="280.884" x2="449.057" y2="423.691" gradientUnits="userSpaceOnUse">
<stop stop-color="#EEB3CF"/>
<stop offset="0.5" stop-color="#88D0EE"/>
<stop offset="1" stop-color="#A3D4BC"/>
</linearGradient>
<linearGradient id="paint31_linear_514_5912" x1="1858.78" y1="282.75" x2="462.621" y2="423.937" gradientUnits="userSpaceOnUse">
<stop stop-color="#EEB3CF"/>
<stop offset="0.5" stop-color="#88D0EE"/>
<stop offset="1" stop-color="#A3D4BC"/>
</linearGradient>
</defs>
</svg>
