<?xml version="1.0" encoding="UTF-8"?>
<svg id="_圖層_2" data-name="圖層 2" xmlns="http://www.w3.org/2000/svg" viewBox="0 0 1533.884201331783515 763.318101044691502">
  <defs>
    <style>
      .cls-1 {
        stroke-width: .951612903640188px;
      }

      .cls-1, .cls-2, .cls-3, .cls-4, .cls-5, .cls-6, .cls-7, .cls-8, .cls-9, .cls-10, .cls-11, .cls-12, .cls-13, .cls-14, .cls-15, .cls-16, .cls-17, .cls-18, .cls-19, .cls-20, .cls-21, .cls-22, .cls-23, .cls-24, .cls-25, .cls-26, .cls-27, .cls-28, .cls-29, .cls-30, .cls-31, .cls-32 {
        fill: none;
        stroke: #fff;
        stroke-miterlimit: 10;
      }

      .cls-2 {
        stroke-width: .693548386980747px;
      }

      .cls-3 {
        stroke-width: .758064516145607px;
      }

      .cls-4 {
        stroke-width: .822580645310468px;
      }

      .cls-5 {
        stroke-width: .870967742184113px;
      }

      .cls-6 {
        stroke-width: .838709677601683px;
      }

      .cls-8 {
        stroke-width: .741935483854392px;
      }

      .cls-9 {
        stroke-width: .903225806766543px;
      }

      .cls-10 {
        stroke-width: .887096774475328px;
      }

      .cls-11 {
        stroke-width: .612903225524672px;
      }

      .cls-12 {
        stroke-width: .790322580728038px;
      }

      .cls-13 {
        stroke-width: .806451613019253px;
      }

      .cls-14 {
        stroke-width: .580645160942242px;
      }

      .cls-15 {
        stroke-width: .919354839057758px;
      }

      .cls-16 {
        stroke-width: .596774193233457px;
      }

      .cls-17 {
        stroke-width: .532258064068597px;
      }

      .cls-18 {
        stroke-width: .548387096359812px;
      }

      .cls-19 {
        stroke-width: .5px;
      }

      .cls-20 {
        stroke-width: .661290322398317px;
      }

      .cls-21 {
        stroke-width: .725806451563177px;
      }

      .cls-22 {
        stroke-width: .629032257815887px;
      }

      .cls-23 {
        stroke-width: .774193548436823px;
      }

      .cls-24 {
        stroke-width: .516129031777382px;
      }

      .cls-25 {
        stroke-width: .709677419271962px;
      }

      .cls-26 {
        stroke-width: .564516128651027px;
      }

      .cls-27 {
        stroke-width: .983870968222618px;
      }

      .cls-28 {
        stroke-width: .935483871348973px;
      }

      .cls-29 {
        stroke-width: .645161290107102px;
      }

      .cls-30 {
        stroke-width: .854838709892898px;
      }

      .cls-31 {
        stroke-width: .967741935931403px;
      }

      .cls-32 {
        stroke-width: .677419354689532px;
      }
    </style>
  </defs>
  <g id="_圖層_5" data-name="圖層 5">
    <g>
      <path class="cls-7" d="m1522.510188791828114.229584920787602c17.304738907170758,33.479199744209836,11.296821712139717,75.360532483038696.357049339170771,116.459558574819312-29.318547923790902,110.145215537149852-92.880203538759815,223.260866638960579-178.065296977869366,331.464554735679485-47.85961689125179,60.79190444850974-103.223416479369916,120.815127300820677-172.324944423520719,173.695168781630855s-140.783698411889418,113.858297150489307-227.500652634480502,121.560910428319403c-86.716954222589266,7.702613277821001-131.827166026600025-56.438077773389523-154.312131121489074-115.287394775430585-22.484965094892686-58.849317002039243,15.54748503124938-282.664062770898454-100.540634081439748-254.016922874388911-52.644733177371563,12.991174701370255-109.289861318782641,42.616983111040099-172.804490409972459,186.487380372300322-55.340067935158004,125.353759790759796-134.056390029023532,218.35465133615071-207.018936851942271,199.882354079789366-138.819120760945225-35.145539392800856-45.629447062432519-122.066809144969739-89.395653084661717-167.076550368648896-4.986277583527226-5.127928764191893-11.270536372202514-9.796428135410679-20.401506299636821-11.328357273781876-19.877610595352962-3.335077112209547-45.467658138968545,8.807736827100598-65.534825184931833,21.208211178791316-54.154716663098043,33.464780232900011-98.835799667358515,75.557733913168704-126.790943609385977,119.446506126039822"/>
      <path class="cls-27" d="m1510.484367456866494,2.364050797179516c13.478250768424004,38.546911260280467,10.050584020265887,83.825936791006825-5.503517715384987,129.136293931524051-36.185492434604384,105.411267933232011-92.45462599441089,217.864735112827475-176.737711489678986,322.785070675852694-47.714104921974467,59.397207281692317-103.119593407463981,117.419678208523692-171.015033798937111,168.040583057749245-68.021103366165335,50.552934959665436-137.532586587387414,108.320925519241428-221.400020085789947,114.589134202446076-83.871577733332742,6.362361798246639-127.361499445494701-56.825919023223832-148.840676719119074-114.906733351614093-21.497237178050455-58.008059025698458,15.455120875213652-276.283482709563032-97.88474087087161-248.913061446251959-51.388747267100371,12.415621671138069-107.513753441970039,41.148160666980402-171.735082033484105,181.85463756801073-56.443589176089517,122.858509857083845-133.733897593045185,214.675101902446841-206.84245395457765,197.628104292649368-136.712434501437201-31.877753578537522-48.065991656489132-117.602442070483448-92.997121512128615-160.932985552781247-5.648638546836992-5.44741650067408-12.439156231647758-10.608739127648732-22.145368142338157-12.403380235244185-19.335035744163179-3.574973458500608-44.316933146754309,8.371290380016944-63.955901214326332,20.397776223348046-53.021935453187325,32.458215722923342-96.487306711960628,73.836193891535004-123.500791222960288,116.71569457439"/>
      <path class="cls-31" d="m1498.458545738790235,4.498516741568892c9.651762507774038,43.614622937800959,9.017353422499582,91.880244317688266-11.364084956644547,141.813029692082637-41.165485946597983,100.851928915253666-92.043583185061834,212.465085170366365-175.410125959195284,314.105586339515867-47.574999094133091,58.003445868573181-103.015770332248394,114.024229008056864-169.705123132622248,162.38599715372402-66.940678753760949,48.22582836438778-134.281474659312153,102.783553711587956-215.299387342746741,107.617357754470504-81.02620115343052,5.022110275975137-122.895832722124396-57.213760285414537-143.369222142441686-114.5260719156704-20.509509229740615-57.166801022554864,15.362756716233889-269.902902444955544-95.22884757569318-243.809199855515544-50.132761316815049,11.840068622568651-105.398158523616985,39.840108561240413-170.665673622926988,177.221894616131976-57.249677188369787,120.505015262750021-133.383395022256082,210.986107921517032-206.665971051590532,195.37385443369385-134.559882868792556-28.666882558800353-50.73518379341931-112.965367287251865-96.598590054331908-154.789420541195796-6.325115042001016-5.768039705752017-13.602601629358105-11.417733519241665-23.889230040593247-13.478403230952608-18.796764040875132-3.765463355797692-43.16620811788016,7.934843919028935-62.376977193419407,19.587341242084221-51.889154207188767,31.451651180877889-94.138813681745887,72.114653815058773-120.210638731719882,113.98488293574519"/>
      <path class="cls-1" d="m1486.432724020713977,6.632982685960087c5.825274247124071,48.682334615317814,8.176813674836012,99.674104321382401-17.224652197904106,154.489765452639404-44.745479275785328,96.559507290850888-91.647676660854813,207.061467223482396-174.082540428710672,305.426102003179039-47.442621326968037,56.610466816084227-102.80193847458122,110.785431497373793-168.395212466309204,156.731411249698795-65.750357553642971,46.056011737557128-131.030362731236892,97.246181903934485-209.198754599704444,100.645581306494933-78.180824573526479,3.681858753703636-118.430165998753182-57.601601547605242-137.897767565762479-114.145410479728525-19.521781281432595-56.325543019411271,15.270392557255946-263.522322180348056-92.57295428051475-238.70533826477913-48.876775366531547,11.264515573999233-103.466626744745554,38.453376437355473-169.596265212369872,172.589151664253222-58.215739190048225,118.083411426589009-133.005232324381723,207.285583358294389-206.489488148605233,193.119604574740151-132.362716979577272-25.516315290060447-53.580491446404267-108.185298657601379-100.200058596531562-148.645855529610344-7.013759994142674-6.087157227690113-14.761969515619967-12.223295819290797-25.633091938850157-14.553426226659212-18.263015105576414-3.914518222774859-42.015483089005102,7.498397458037289-60.798053172513391,18.776906260818578-50.756372961190209,30.445086638836074-91.790320651531147,70.393113738582542-116.920486240476748,111.254071297100381"/>
      <path class="cls-28" d="m1474.406902302638628,8.767448630351282c1.998785986474104,53.750046292832849,7.509637049035518,107.309767542295958-23.085219439163666,167.16650121319617-47.301521073358344,92.542174538670224-91.267649819338658,201.653279049134653-172.75495489822697,296.746617666842212-47.317383859023721,55.218024469630109-102.665861793352633,107.442626112982907-167.08530179999525,151.076825345677207-64.637768790874361,43.782083189282275-127.784387150487419,91.520921722494677-203.098121856662146,93.673804858515723-75.341055074616634,2.153664103272604-113.964499275381058-57.989442809794127-132.426312989085091-113.764749043784832-18.534053333121847-55.484285016269496,15.178028398277092-257.141741915740567-89.917060985335411-233.601476674044534-47.620789416247135,10.688962525431634-101.545272235715856,37.067318811416044-168.526856801812755,167.956408712374468-59.189874957857683,115.663266474988632-132.599931719572851,203.571303461847492-206.313005245618115,190.865354715784633-130.122503773563949-22.429262335292151-56.560823466827969-103.286604079979952-103.801527138733945-142.502290518023074-7.713103249497181-6.40283939454639-15.918150200015589-13.025319233160189-27.376953837106157-15.628449222369454-17.733768050870822-4.028632036723138-40.864758060130953,7.061950997051099-59.219129151607376,17.966471279556572-49.623591715190742,29.438522096794259-89.441827621315497,68.671573662106312-113.630333749235433,108.523259658453753"/>
      <path class="cls-15" d="m1462.381080584562369,10.901914574740658c-1.827702274175863,58.817757970351522,18.605943969450891,122.797931255619915-28.945786680424135,179.843236973752937-31.492203168391825,96.440265137185634-90.904268957725435,196.239851825892401-171.427369367742358,288.067133330509023-47.199724722399878,53.825826215765119-102.532341350231945,104.099874014753368-165.775391133681296,145.422239441650163-63.527764203548031,41.508394932905503-124.53024271220329,85.936228913828018-196.99748911361803,86.702028410540152-72.492939670209125.766071010993983-109.498832552011663-58.377284071984832-126.954858412407702-113.384087607841138-17.546325384812917-54.64302701312954,15.08566423929733-250.761161651134898-87.261167690156981-228.497615083309938-46.364803465962723,10.113409476864035-99.634571512679031,35.681530169202233-167.457448391255639,163.323665760495714-60.172524859359328,113.24423159930484-132.168200723695918,199.840904726574081-206.136522342630997,188.611104856830934-127.841126899993469-19.408717661668561-59.645908655082167-98.288994341852231-107.402995680936328-136.358725506435803-8.422017929900903-6.713641438831473-17.071883373389937-13.823666512489581-29.120815735362157-16.703472218079696-17.20887352313548-4.113079123517309-39.714033031256804,6.62550453606309-57.640205130701361,17.156036298294566-48.490810469191274,28.431957554748806-87.093334591100756,66.950033585626443-110.340181257992299,105.792448019807125"/>
      <path class="cls-9" d="m1450.35525886648611,13.036380519131853c-5.65419053482583,63.885469647870195,20.06776843022908,132.285411070584814-34.806353921683694,192.519972734309704-31.92693422008324,93.699275039727581-90.558320225944954,190.820443577036713-170.099783837257746,279.387648994172196-47.090108689980298,52.433525108877802-102.401613586193889,100.757039764890578-164.465480467366433,139.767653537624938-62.420581958514049,39.234829162596725-121.273932696067277,80.351564012615199-190.896856370576643,79.73025196256458-69.642746358515069-.62148894685015-104.922206293531417-58.798902889964666-121.483403835729405-113.003426171897445-16.448462108538479-53.835542088216243,14.993300080318477-244.38058138652741-84.605274394978551-223.393753492573524-45.10881751567922,9.537856428292798-97.734998909832939,34.295553633473901-166.388039980699432,158.690922808616961-61.164137332970313,110.825905526313363-131.710945247908967,196.091885494568487-205.960039439642969,186.356854997875416-125.520783991429198-16.457421783086829-62.813131113499367-93.208336063147726-111.004464223138712-130.215160494852171-9.13962762808751-7.018452762746165-18.223796033538747-14.618166255810138-30.864677633618157-17.7784952137863-16.688114971700088-4.172172057902571-38.563308002382655,6.189058075073262-56.061281109794436,16.345601317030741-47.358029223192716,27.425393012705172-84.744841560886016,65.228493509152031-107.050028766751893,103.061636381162316"/>
      <path class="cls-10" d="m1438.329437148410761,15.170846463523048c-9.480678795476706,68.953181325385231,21.52959289100454,141.772890885549714-40.666921162943254,205.196708494864652-32.361665271773745,90.958284942273167-90.230605534454298,185.39423211893336-168.772198306774953,270.708164657837187-46.9890280264799,51.040711368570555-102.2739336368777,97.413953778201176-163.155569801052479,134.113067633601531-61.316479506407632,36.961235019209198-118.015186369065304,74.767067858689188-184.796223627533436,72.75847551458719-66.79021562096932-2.008868404334862-100.440274813080578-59.189878714423685-116.011949259051107-112.622764735953751-15.4447695384697-52.997422547026872,14.900935921339624-238.000001121921741-81.94938109980103-218.289891901838928-43.852831565393899,8.962303379725199-95.847021624877925,32.908877423687954-165.318631570140496,154.058179856738207-62.165165740700104,108.407829774705533-131.229282744600823,192.321607390826102-205.78355653665767,184.102605138921717-123.16398053913781-13.577827023413192-66.045349123628512-88.057412021835262-114.605932765339276-124.0715954832649-9.865239580532034-7.316397816912286-19.374431511046168-15.40860953426818-32.608539531875067-18.853518209494723-16.171246093321315-4.209461330407066-37.412582973508506,5.752611614083435-54.482357088888421,15.535166335765098-46.225247977194158,26.418828470661538-82.396348530670366,63.5069534326758-103.759876275508759,100.330824742517507"/>
      <path class="cls-5" d="m1426.303615430333593,17.305312407914244c-13.307167056125763,74.020893002903904,22.99141735178182,151.260370700514613-46.527488404201904,217.873444255421418-32.796396323463341,88.217294844813296-89.92193719903571,179.960307519200796-167.444612776290342,262.028680321498541-46.897002957191035,49.646902578404479-102.14957472245078,94.070405335072792-161.845659134738526,128.458481729579944-60.21573316613285,34.687421338509012-114.753699970300659,69.182930626066081-178.695590884491139,65.786699066609799-63.935056907154831-3.395868575658824-95.959159773515239-59.58010388382354-110.540494682373719-112.242103300011877-14.441938789775122-52.158555912030351,14.80857176236168-231.619420857312434-79.293487804621691-213.186030311102513-42.596845615109487,8.386750331155781-93.971093935277167,31.520931465774993-164.24922315958429,149.425436904859453-63.176064503639282,105.989483828107041-130.724555438621792,188.527297699562041-205.607073633669643,181.848355279968018-120.773520622165051-10.772065489920351-69.32938535615267-82.846560909581967-118.207401307541659-117.928030471679449-10.598296551336716-7.606769846091993-20.524272132409351-16.194746285251313-34.352401430131067-19.928541205204965-15.658013437579029-4.227890105094048-36.261857944633448,5.316165153095426-52.903433067982405,14.724731354504911-45.092466731194691,25.412263928616085-80.047855500455626,61.785413356197751-100.469723784267444,97.60001310386906"/>
      <path class="cls-30" d="m1414.277793712257335,19.43977835230362c-17.13365531677573,79.088604680420758,24.45324181255819,160.747850515481332-52.388055645460554,230.550180015980004-33.231127375154756,85.476304747357062-89.633131066411806,174.517664084060016-166.117027245807549,253.349195985163533-46.814581742936753,48.25153239381325-102.028826489926359,90.726134413700493-160.535748468423662,122.803895825554719-59.118636704575692,32.413148035720951-111.489135956393511,63.599406983337758-172.594958141448842,58.814922618632409-61.076948326153797-4.782223589520072-91.478942603180258-59.969570362776722-105.069040105695422-111.861441864066364-13.440049710111452-51.318935158411477,14.716207603382827-225.238840592708584-76.637594509443261-208.082168720369737-41.340859664825985,7.811197282588182-92.107650523957091,30.131084257458497-163.179814749026264,144.792693952982518-64.197284432567358,103.570280311278111-130.198343696037227,184.706052836349045-205.430590730684344,179.5941054210125-118.352494831518015-8.041920238989405-72.654972133886986-77.584191358373573-121.808869849743132-111.784465460093998-11.338341998231954-7.888985863139169-21.673757373745502-16.976281095452578-36.096263328387067-21.003564200913388-15.148169776629402-4.229914580166223-35.111132915759299,4.879718692107417-51.32450904707548,13.914296373242905-43.959685485196133,24.405699386572451-77.699362470240885,60.063873279719701-97.179571293025219,94.869201465222432"/>
      <path class="cls-6" d="m1402.251971994181986,21.574244296694815c-20.960143577425697,84.156316357937612,25.91506627333456,170.235330330448051-58.248622886721932,243.226915776536771-33.665858426843442,82.73531464989901-89.364997820516692,169.065191913761737-164.789441715322027,244.669711648826706-46.742340217427227,46.853937542586209-101.911991873404077,87.380822260580317-159.225837802109709,117.149309921529493-58.025498476687972,30.138115972400556-108.221124704978138,58.016835557520608-166.494325398405635,51.843146170656837-58.21553889351253-6.167580471650581-86.999711830394517-60.358274275617077-99.597585529018033-111.48078042812449-12.439188519389063-50.478557479440497,14.623843444403974-218.858260328099277-73.981701214264831-202.978307129633322-40.084873714541573,7.235644234018764-90.257098863209649,28.7386401141448-162.110406338470057,140.159951001103764-65.229267165821511,101.149560280351579-129.65247958715554,180.854843130578956-205.254107827697226,177.339855562058801-115.904265798773849-5.388799988868413-76.014006053927005-72.277186274153792-125.410338391944606-105.640900448506727-12.084994644345898-8.162555558850727-22.823298880116454-17.752868077308449-37.840125226643067-22.07858719662363-14.641481746746649-4.217598050712695-33.96040788688515,4.443272231117589-49.745585026168555,13.103861391979081-42.826904239198484,23.399134844530636-75.350869440026145,58.342333203241651-93.889418801784814,92.138389826577622"/>
      <path class="cls-4" d="m1390.226150276105727,23.708710241084191c-24.786631838075664,89.224028035456286,27.37689073411093,179.72281014541295-64.109190127980582,255.903651537093538-34.100589478534857,79.994324552442777-89.118332118961007,163.601668090712337-163.461856184839235,235.990227312493516-46.680880601967147,45.453342876051465-101.799381906142116,84.03408068455974-157.915927135795755,111.494724017504268-56.936636551893571,27.861955195752671-104.949270455947044,52.435663604024739-160.393692655362429,44.871369722679447-55.350455113498356-7.551473932560839-82.521563491643064-60.746216846458992-94.126130952339736-111.100118992180796-11.439448083064235-49.637425205775799,14.531479285425121-212.477680063493608-71.325807919086401-197.874445538898726-38.828887764257161,6.660091185451165-88.419810620376666,27.342836941175847-161.04099792791294,135.52720804922501-66.272438629833232,98.726588765388442-129.089060692558633,176.970519207114194-205.077624924711017,175.085605703105102-113.432451779834992-2.813717594393893-79.400014611576808-66.931218067637019-129.01180693414608-99.497335436921276-12.837929737734157-8.427059516401641-23.973293398329588-18.524104565680318-39.583987124899068-23.153610192332053-14.137733967471831-4.192684841362279-32.809682858011001,4.006825770129581-48.16666100526254,12.293426410715256-41.694122993199016,22.392570302487002-73.002376409810495,56.620793126767239-90.599266310542589,89.407578187930994"/>
      <path class="cls-13" d="m1378.200328558029469,25.843176185475386c-28.613120098724721,94.29173971297314,28.8387151948873,189.210289960379669-69.969757369240142,268.580387297650304-34.535320530225363,77.253334454984724-88.893899152089944,158.125747598172893-162.134270654354623,227.310742976156689-46.630829360125063,44.048844204073248-101.691307763168879,80.685440175946496-156.606016469481801,105.840138113479043-55.852371084253718,25.58421153125164-101.673164213439122,46.856477662267935-154.293059912320132,37.899593274705694-52.481314590288093-8.933295306826039-78.044601500090721-61.133405487109485-88.654676375661438-110.719457556238922-10.440928128121413-48.795546863020718,14.439115126445358-206.097099798887939-68.669914623907971-192.770583948162312-37.572901813973658,6.084538136879928-86.596112069755691,25.942844699024135-159.971589517355824,130.894465097344437-67.327201445418723,96.300550734091303-128.510464175653397,173.049820344929685-204.901142021723899,172.831355844149584-110.940908756267163-.317272354832312-82.807769650014961-61.550993868682781-132.613275476348463-93.353770425334005-13.596865102130323-8.682133742839142-25.12413445455968-19.289523343562905-41.327849023155068-24.228633188040476-13.636731032823263-4.15665878373693-31.658957829136853,3.570379309139753-46.587736984356525,11.482991429451431-40.561341747200458,21.386005760443368-70.653883379595754,54.899253050291009-87.309113819300364,86.676766549286185"/>
      <path class="cls-12" d="m1366.17450683995412,27.977642129866581c-32.439608359376507,99.359451390489994,30.30053965566367,198.697769775342749-75.830324610500611,281.257123058207071-34.970051581914959,74.512344357528491-88.692418152832943,152.635954110279272-160.806685123870921,218.631258639819862-46.59283378818418,42.639388624451385-101.588069140127118,77.334337140411662-155.296105803166938,100.185552209455636-54.773012989154267,23.304331671019099-98.392407651024769,41.280040486975849-148.192427169277835,30.927816826726485-49.607750616174599-10.312255590024506-73.568937951322368-61.519855048341924-83.18322179898405-110.338796120293409-9.443735378062229-47.952938380622072,14.346750967467415-199.716519534280451-66.014021328728631-187.666722357427716-36.316915863690156,5.508985088312329-84.786273522334341,24.537764748391055-158.902181106798707,126.261722145465683-68.393926216423097,93.870547678707226-127.919361098438458,169.08938529327861-204.724659118736781,170.577105985195885-108.433711496419164,2.100363913074034-86.233003697971071-56.140446570683707-136.214744018550846-87.210205413748554-14.361550653008635-8.927458558655417-26.276223475375446-20.048583055428026-43.071710921411068-25.303656183748899-13.138298261808814-4.110789780250343-30.508232800262704,3.133932848151744-45.0088129634496,10.672556448189425-39.4285605012019,20.379441218397915-68.305390349381923,53.17771297381114-84.018961328059049,83.945954910639557"/>
      <path class="cls-23" d="m1354.148685121877861,30.112108074255957c-36.266096620025564,104.427163068008667,31.76236411644004,208.185249590311287-81.690891851760171,293.933858818763838-35.404782633605464,71.771354260072258-88.514542313874699,147.130670848602676-159.479099593386309,209.951774303484854-46.567556952622908,41.223752040605177-101.489937899592405,73.980100825912814-153.986195136853894,94.53096630543223-53.69884778112737,21.021647165578543-95.10665378916201,35.707333353399008-142.091794426234628,23.956040378750913-46.729453280889174-11.687343883686481-69.09469333722609-61.905589249405239-77.711767222305753-109.958134684351535-8.44798357777654-47.109624464017543,14.254386808488562-193.335939269674782-63.358128033550202-182.562860766691301-35.060929913404834,4.933432039742911-82.990497819729171,23.126630280512472-157.832772696241591,121.628979193586929-69.472941657829324,91.435595062928769-127.31873088316479,165.085766140755368-204.548176215750573,168.322856126240367-105.915133966368558,4.439457230300832-89.672199287672811-50.702884228563562-139.816212560752319-81.066640402163102-15.131760446674889-9.162750539690023-27.429980984536996-20.80065638574888-44.815572819667068-26.378679179457322-12.642281777772041-4.056171143876782-29.357507771388555,2.697486387163735-43.429888942543585,9.862121466925601-38.295779255202433,19.3728766763561-65.956897319166274,51.456172897334909-80.728808836816825,81.215143271992929"/>
      <path class="cls-3" d="m1342.122863403801603,32.246574018647152c-40.092584880674622,109.494874745525522,33.22418857721641,217.672729405276186-87.55145909301973,306.610594579320605-35.839513685295969,69.030364162614205-88.360834490094931,141.608131770164619-158.151514062901697,201.272289967148026-46.555670478580396,39.800513555723228-101.39713577175371,70.621940941393405-152.67628447053994,88.876380401408824-52.630113233830343,18.735358136384093-91.815672219982844,30.139600398262701-135.991161683191422,16.984263930771704-43.84623440706855-13.057285238182885-64.621996631844013-62.290642298688908-72.240312645628364-109.577473248406022-7.453793373000735-46.265640139565221,14.162022649508799-186.955359005067294-60.702234738371772-177.458999175956706-33.804943963121332,4.357878991173493-81.208907981224002,21.708408053038511-156.763364285684474,116.996236241708175-70.564523549476689,88.994620901017697-126.711875716227951,161.035445955933028-204.371693312763455,166.068606267286668-103.389629397652243,6.700718536236309-93.122430670025096-45.241107474023011-143.417681102954703-74.923075390577651-15.907286601664964-9.387756626834744-28.585858499595815-21.545015465488177-46.559434717923068-27.453702175165745-12.148548287961603-3.993749765711982-28.206782742514406,2.261039926173908-41.850964921637569,9.051686485661776-37.162998009203875,18.366312134312466-63.608404288950624,49.734632820860497-77.4386563455746,78.48433163334812"/>
      <path class="cls-8" d="m1330.097041685725344,34.381039963038347c-43.919073141325498,114.562586423042376,34.686013037993689,227.160209220241086-93.41202633427929,319.287330339877371-36.274244736985565,66.289374065156153-88.231737979565878,136.066413439675671-156.823928532417995,192.592805630811199-46.557844558043143,38.368026445139549-101.309804838948367,67.258937549609982-151.366373804225077,83.221794497385417-51.566969398039873,16.444518127125775-88.519448425025075,24.578387201576334-129.890528940150034,10.012487482796132-40.958124963418413-14.420506630671298-60.150985204872995-62.675060715284417-66.768858068950067-109.196811812464148-6.461292002273694-45.421032478223424,14.069658490530855-180.574778740461625-58.046341443192432-172.35513758522211-32.548958012837829,3.782325942605894-79.441534143471472,20.282001661358663-155.693955875127358,112.36349328983124-71.668882540341656,86.546465775010802-126.102434546313816,156.934861044190257-204.195210409777246,163.814356408329331-100.861810207728922,8.885307867092706-96.581243596588138-39.757502321212087-147.019149645156176-68.779510378990381-16.687934620060332-9.602249794919771-29.744351800189179-22.28081381237098-48.303296616179068-28.528725170874168-11.656984812769224-3.924350685867466-27.056057713640257,1.82459346518408-40.272040900730644,8.24125150439977-36.030216763205317,17.359747592267013-61.259911258735883,48.013092744380629-74.148503854333285,75.753519994701492"/>
      <path class="cls-21" d="m1318.071219967649085,36.515505907427723c-47.745561401974555,119.630298100561049,36.147837498770059,236.647689035207804-99.272593575538849,331.964066100434138-36.708975788676071,63.54838396769992-88.127541587761698,130.503428050129514-155.496343001934292,183.913321294476191-46.574734376741617,36.924385453326977-101.22796965298312,63.890035581824122-150.056463137911123,77.567208593360192-50.509459547233746,14.148022346009384-85.218326964822154,19.025558434137565-123.789896197105918,3.040711034818742-38.065513178536094-15.775127417589829-55.681804509451467-63.058905355615934-61.297403492272679-108.816150376518635-5.470612751898443-44.575862498171773,13.977294331552002-174.194198475854137-55.390448148014912-167.251275994487514-31.292972062551598,3.206772894036476-77.688299991075837,18.846256577493477-154.624547464570242,107.730750337952486-72.786150878239823,84.089884625755076-125.494396141581092,152.78042878549968-204.018727506789219,161.560106549375632-98.336427833933158,10.994836044093972-100.046563074141886-34.254113964479984-150.620618187358559-62.63594536740311-17.473519767727339-9.806025855610642-30.906016349698803-23.007063898945489-50.047158514435068-29.60374816658441-11.167498542004978-3.848697288118274-25.905332684766108,1.38814700419789-38.693116879824629,7.430816523135945-34.897435517205849,16.353183050225198-58.911418228521143,46.291552667904398-70.85835136309106,73.022708356056683"/>
      <path class="cls-25" d="m1306.045398249572827,38.649971851818918c-51.572049662624522,124.698009778077903,37.609661959546429,246.135168850172704-105.133160816798409,344.640801860990905-37.143706840366576,60.807393870241867-88.048338091199184,124.916918196377082-154.168757471448771,175.233836958139364-46.606961947637501,35.467390256031649-101.151490263376218,60.514047255512196-148.746552471598079,71.912622689334967-49.457460953812188,11.84460263926303-81.913204358147595,13.483268564748869-117.689263454063621-3.931065413155011-35.169326750153232-17.119001289751395-51.214607480955237-63.442253641662319-55.825948915594381-108.43548894057858-4.481894116856893-43.730207238571893,13.884930172573149-167.813618211246649-52.734554852836482-162.1474144037511-30.036986112268096,2.631219845468877-75.949008941735883,17.399967180714157-153.555139054013125,103.098007386073732-73.91636820155054,81.62355067578028-124.89211043659634,148.56858211909821-203.84224460380301,159.305856690421933-95.818352387754203,13.031364283438961-103.516621899175334-28.732705822932985-154.222086729559123-56.492380355817659-18.263864264911717-9.998901092863889-32.071485837315777-23.722609156400722-51.791020412691978-30.678771162292833-10.680016957326188-3.767428074777854-24.75460765589105.951700543208062-37.114192858918614,6.620381541872121-33.764654271207291,15.346618508181564-56.562925198305493,44.570012591428167-67.568198871848836,70.291896717410054"/>
      <path class="cls-2" d="m1294.019576531496568,40.784437796210113c-55.398537923274489,129.765721455596577,39.071486420323708,255.622648665139423-110.993728058057968,357.317537621547672-37.578437892056172,58.066403772785634-87.993975135062101,119.304454183487906-152.841171940965069,166.554352621802536-46.655092079368842,33.994505097554793-101.080006348651295,57.129666698510846-147.436641805283216,66.25803678531156-48.410625230022561,9.532833840939929-78.605764844055557,7.953846488961062-111.588630711021324-10.90284186113422-32.271249171491945-18.449848801785265-46.749553573322373-63.825201975756499-50.354494338916993-108.054827504633067-3.495278603239967-42.884161985641185,13.792566013595206-161.433037946639161-50.078661557657142-157.043552813016504-28.781000161983684,2.055666796899459-74.223330420745697,15.941885983544125-152.485730643456009,98.465264434196797-75.059466603423061,79.146061853351057-124.300297117333685,144.295811806359779-203.665761700816802,157.051606831468234-93.312551869955314,14.99740209636002-106.989904789674256-23.19480707087132-157.823555271760597-50.348815344234026-19.058795104256205-10.180710514261591-33.241495093083358-24.426088833344693-53.534882310947978-31.753794158001256-10.19448834630839-3.681110784287739-23.603882627016901.515254082218235-35.535268838011689,5.809946560610115-32.631873025208733,14.340053966136111-54.214432168090752,42.848472514948298-64.27804638060752,67.561085078763426"/>
      <path class="cls-32" d="m1281.993754813421219,42.91890374059949c-59.225026183924456,134.833433133113431,40.533310881099169,265.110128480104322-116.854295299318437,369.994273382104438-38.013168943746678,55.325413675329401-87.96399753625974,113.663434874841187-151.513586410481366,157.874868285467528-46.719600894803079,32.502814896564814-101.01287424165821,53.735502004741647-146.126731138968353,60.603450881288154-47.368309542122915,7.211157517396714-75.298725255542195,2.439544841790848-105.487997967979027-17.874618309109792-29.373933564123945-19.765526797851635-42.286807349376431-64.207868312043502-44.883039762237786-107.674166068691193-2.510911101323472-42.037842617615752,13.700201854615443-155.052457682033491-47.422768262479622-151.939691222281908-27.525014211699272,1.48011374833186-72.510786633250973,14.4707352212572-151.416322232898892,93.832521482318043-76.215255264429288,76.65595008209857-123.724050064173753,139.958717608951702-203.489278797829684,154.797356972512716-90.824070516399843,16.895903758058921-110.465104339234131-17.641751129205659-161.42502381396298-44.205250332646756-19.858142360201782-10.35130656022011-34.416909053961717-25.115893597401737-55.278744209203978-32.828817153709679-9.710882840177874-3.590254474411267-22.453157598142752.078807621230226-33.956344817105673,4.99951157934629-31.499091779210175,13.333489424092477-51.865939137876012,41.126932438472068-60.987893889365296,64.830273440118617"/>
      <path class="cls-20" d="m1269.967933095344961,45.053369684990685c-63.051514444574423,139.901144810632104,41.995135341875539,274.597608295071041-122.714862540577087,382.671009142663024-38.447899995438092,52.584423577869529-87.95757993693951,107.991093365475535-150.186000879997664,149.195383949130701-46.8008349467882,30.988978564470017-100.949101094322032,50.330130417634791-144.816820472655309,54.948864977262929-46.329502571966259,4.877930234166342-71.996010740152997-3.057889597092071-99.38736522493582-24.846394757087182-26.481136227520437-21.064470311477635-37.826536532944374-64.590394834405743-39.411585185560398-107.293504632749318-1.528936753868038-41.191388016635756,13.60783769563659-148.671877417426003-44.766874967300282-146.835829631545494-26.26902826141577.904560699764261-70.810740315547264,12.985220919747007-150.346913822341776,89.199778530439289-77.38340504480675,74.151693774849264-123.168835907184075,135.554069436404461-203.312795894842566,152.543107113559017-88.358005679120652,18.730263488252604-113.941086015424844-12.074707018258778-165.026492356164454-38.061685321059485-20.661737887630807-10.51055815437212-35.598760086927541-25.790109034671332-57.022606107460888-33.903840149419921-9.229194132922203-3.495320099322271-21.302432569268603-.357638839757783-32.377420796199658,4.189076598084284-30.366310533210708,12.326924882047024-49.517446107660362,39.405392361995837-57.697741398123071,62.09946180147017"/>
      <path class="cls-29" d="m1257.942111377268702,47.18783562938188c-66.87800270522439,144.968856488147139,22.553741751702546,257.020251705325791-128.575429781836647,395.347744903217972-46.631618566554607,42.681600346364576-87.973448793156422,102.284509117063863-148.858415349513052,140.515899612795693-46.89895856394196,29.449180973788316-100.887283771514376,46.912181814064752-143.506909806341355,49.294279073237703-45.292752797899993,2.531503730515396-68.702729497897053-8.537826014624443-93.286732481892614-31.818171205062754-23.597647173734003-22.34629454952119-33.36890942433547-64.972950665784083-33.94013060888301-106.912843196805625-.549498242919981-40.344962472450788,13.515473536657737-142.291297152818515-42.110981672121852-141.731968040809079-25.013042311131358.329007651193024-69.122384013829105,11.484049484275602-149.277505411785569,84.567035578558716-78.563433529178837,71.631733818050634-122.640484562975871,131.078879309865442-203.136312991855448,150.288857254605318-85.91948249930465,20.504309304593335-117.416860137641379-6.494705038510801-168.627960898365927-31.918120309474034-21.469414332209453-10.658350007792251-36.788296904251183-26.446443184409873-58.766468005716888-34.978863145128344-8.749442086827003-3.396730053749707-20.143243752920171-.772424989507272-30.798496775292733,3.37864161682046-29.210447356557779,11.379787258276338-47.168953077445622,37.683852285517787-54.407588906881756,59.368650162825361"/>
      <path class="cls-22" d="m1245.916289659193353,49.322301573771256c-70.704490965874356,150.036568165665813,25.292643765761568,267.475061555602224-134.435997023097116,408.024480663776558-46.062074853181002,40.531227408924678-88.0097928339992,96.540628626442412-147.53082981902935,131.836415276458865-47.013886625447412,27.879086050486876-100.825564023914012,43.480453439073244-142.196999140026492,43.639693169214297-44.256111335603237.17034292396238-65.424785153487392-14.00144526182703-87.186099738850316-38.789947653040144-20.728879314629921-23.612446409992117-28.914091579289561-65.355734502432824-28.468676032204712-106.532181760861931.427267578046667-39.498757975190529,13.423109377678884-135.910716888211027-39.455088376944332-136.628106450074483-23.757056360846036-.246545397374575-67.444731494190819,9.965946759171857-148.208097001226633,79.934292626681781-79.754691119802374,69.094493249423977-122.145169248312413,126.530484616756439-202.959830088870149,148.0346073956498-83.513625513201077,22.222295287356246-120.891559285309086-.902657917657052-172.229429440567401-25.774555297888583-22.281004393011244-10.794582110935153-37.987049691479115-27.082132822139101-60.510329903972888-36.053886140836767-8.271676504434254-3.294877141770485-18.993118299227717-1.20930964359286-29.219572754386718,2.568206635556635-28.079275906194198,10.372111107273668-44.820460047229972,35.962312209041556-51.117436415639531,56.637838524180552"/>
      <path class="cls-11" d="m1233.890467941117095,51.456767518162451c-74.530979226525233,155.104279843182667,28.293166433207261,278.344923315291453-140.296564264356675,420.701216424333325-45.511698506195899,38.4298418748931-88.064161456827605,90.756297232004727-146.203244288544738,123.156930940123857-47.145199569911711,26.273794975099008-100.761615277080637,40.034054216162986-140.887088473712538,37.985107265189072-43.21710648527187-2.206816555883051-62.168019945127526-19.452288154185226-81.085466995808019-45.761724101017535-17.880044330861892-24.866668308312001-24.462241656810875-65.738977030390743-22.997221455527324-106.151520324918238,1.401233769237479-38.65299626275737,13.330745218700031-129.530136623605358-36.799195081764083-131.524244859339888-22.501070410563443-.822098445943993-65.776611924781719,8.429679396251231-147.138688590671336,75.301549674803027-80.956348871844966,66.538400712341172-121.689373148973573,121.906642552945414-202.783347185882121,145.780357536696101-81.145526266573142,23.888891737045924-124.36441996375288,4.700621687508828-175.830897982769784-19.630990286303131-23.096340291255729-10.919169362518005-39.1969181579625-27.693821199516606-62.254191802228888-37.128909136547009-7.795982460408595-3.190133456553667-17.843119829352872-1.646505058510229-27.640648733479793,1.757771654294629-26.948452182604342,9.36358433938949-42.471967017016141,34.240772132565326-47.827283924398216,53.907026885535743"/>
      <path class="cls-16" d="m1221.864646223040836,53.591233462553646c-78.35746748717429,160.17199152070134,31.560887413413184,289.66946820467092-146.157131505616235,433.377952184888272-44.987402328182725,36.378254867542637-88.133351135027624,84.928305296944018-144.875658758061036,114.477446603788849-47.292037203825203,24.627815620546244-100.692678536120184,36.572569584875964-139.577177807397675,32.330521361163846-42.172770707090422-4.600777441388345-58.936970952484444-24.896323306698832-74.984834252765722-52.733500548993106-15.055024725149451-26.114965202486928-20.013506356669495-66.122942939899076-17.525766878849026-105.770858888974544,2.372288149620545-37.807930453205699,13.238381059721178-123.149556358999689-34.143301786586562-126.420383268605292-21.245084460278122-1.397651494511592-64.116667481915101,6.874078240442032-146.06928018011331,70.668806722924273-82.167388846881295,63.961917613356491-121.279839727843864,117.205634828807888-202.606864282895003,143.526107677742402-78.820206019346188,25.509172428599413-127.834767632365583,10.314406636895001-179.432366524972167-13.48742527471768-23.915253408958051-11.032041296115494-40.42029241255932-28.277397115796703-63.998053700484888-38.203932132253613-7.32248775683729-3.082859743899462-16.693246829304371-2.084067440129729-26.061724712573778.947336673030804-25.817973705622535,8.354047761000402-40.123473986800491,32.519232056087276-44.537131433156901,51.176215246887296"/>
      <path class="cls-14" d="m1209.838824504964577,55.725699406944841c-82.183955747823347,165.239703198216375,35.098465274066257,301.48998804292205-152.017698746875794,446.054687945445039-44.49621485001262,34.377478718890416-88.213280951196793,79.053452733345694-143.548073227576424,105.797962267452021-47.452967992996491,22.935052300757889-100.615663420259807,33.096228258447809-138.267267141084631,26.67593545714044-41.119740556423494-7.011674090790621-55.733601761524369-30.341272139865396-68.884201509722516-59.705276996970497-12.255290381692248-27.364866483943842-15.568014396075341-66.507932309295938-12.054312302171638-105.390197453030851,3.340338913040796-36.96384605631647,13.146016900743234-116.768976094392201-31.487408491407223-121.316521677868877-19.98909850999371-1.97320454308101-62.463355009701445,5.298063298188936-144.999871769556194,66.0360637710437-83.386597817701841,61.363568714892608-120.923503667905607,112.426380631875872-202.430381379908795,141.271857818786884-76.542572722754812,27.088597886218849-131.302004405995831,15.938043149790246-183.033835067173641-7.343860263130409-24.737574068661161-11.133141873688146-41.660221515402554-28.827781188616427-65.741915598740889-39.278955127963854-6.851373320767379-2.973415991871661-15.54880742489695-2.539871144699646-24.482800691666853.136901691768799-24.702404303217918,7.294102171830673-37.77498095658666,30.797691979611045-41.246978941914676,48.445403608242486"/>
      <path class="cls-26" d="m1197.813002786888319,57.860165351334217c-86.010444008473314,170.307414875735049,38.904788865089358,313.848688898431647-157.878265988134444,458.731423706003625-44.0453334920212,32.428647764389098-88.298860029090974,73.128636597162767-142.220487697093631,97.118477931115194-47.625831330605251,21.188828795255176-100.527323181503561,29.606042570103455-136.957356474769767,21.021349553117034-40.054443360948426-9.438780839202082-52.556553784845164-35.795238532238727-62.783568766680219-66.677053444946068-9.479330336417661-28.624082927970449-11.12586952050242-66.894281086199044-6.582857725493341-105.009536017088976,4.305320980632132-36.12106112433321,13.053652741764381-110.388395829786532-28.831515196228793-116.212660087134282-18.733112559709298-2.548757591650428-60.814952300022924,3.70066970528751-143.930463358998168,61.403320819168584-84.612565176376847,58.741975667559018-120.627399763536232,107.568554498573576-202.253898476922586,139.017607959829547-74.317371670338616,28.632993348976015-134.765598894970026,21.570940607085504-186.635303609376024-1.200295251544958-25.563131431003058-11.222429321809614-42.920652337354113-29.338639557430724-67.485777496996889-40.353978123670458-6.382887749251495-2.862174286978188-14.398082396022801-2.976317605689474-22.903876670760837-.673533289496845-23.56962305721845,6.287537629788858-35.42648792637101,29.076151903134814-37.956826450673361,45.714591969595858"/>
      <path class="cls-18" d="m1185.78718106881206,59.994631295725412c-89.836932269123281,175.375126553253722,42.974070582802597,326.787632934061548-163.738833229394004,471.408159466558573-43.642149657845948,30.532930195116933-88.383852176731125,67.150967175366532-140.892902166609019,88.438993594780186-47.807552297171242,19.381962472105442-100.4244988261662,26.103887808407308-135.647445808456723,15.366763649091808-38.973369280250154-11.880377444831538-49.401326080782383-41.265094342003067-56.682936023636103-73.648829892923459-6.722910248450717-29.89901262591593-6.68714260923025-67.282360355644414-1.111403148815953-104.628874581145283,5.26720299311819-35.279925274069683,12.961288582785528-104.007815565177225-26.175621901050363-111.108798496397867-17.477126609425795-3.124310640218027-59.169569451612915,2.081073964145617-142.861054948441961,56.77057786728983-85.843685865957013,56.095892734565496-120.398547802956273,102.632704201967499-202.077415573935468,136.763358100875848-72.149129581577654,30.148519905553258-138.225077766143841,27.212562963883101-190.236772151577497,4.943269760042313-26.391753491055169-11.299875991357112-44.206773763019555-29.801997466409375-69.229639395252889-41.4290011193807-5.917367797241241-2.749535485090746-13.247357367148652-3.412764066679301-21.324952649854822-1.48396827076067-22.436841811219892,5.280973087743405-33.07799489615536,27.354611826658584-34.666673959430227,42.983780330952868"/>
      <path class="cls-17" d="m1173.761359350736711,62.129097240114788c-93.663420529774157,180.442838230770576,47.294941934222152,340.347332803326935-169.599400470655382,484.084895227117158-43.29424204591669,28.691429890084692-88.460746763030329,61.117918371101041-139.565316636124408,79.759509258443359-47.993932401479469,17.50691288714188-100.304408777918979,22.592487540936418-134.33753514214095,9.712177745068402-37.873404907488293-14.333716597533567-46.26134733251547-46.755256405736873-50.582303280594715-80.620606340900849-3.980070324669214-31.193670088534418-2.32283119110798-67.685474364545371,4.360051427862345-104.248213145201589,6.159145374609579-34.452834937712396,12.868924423806675-97.627235300571556-23.519728605871933-106.004936905663271-16.221140659141383-3.699863688785626-57.525165610806653.438619587945141-141.791646537884844,52.137834915411077-87.078169062654524,53.424243698837017-120.243812720552341,97.620362123241648-201.90093267094835,134.509108241922149-70.042092384393072,31.641637191693007-141.680018696398292,32.862421492010981-193.838240693778971,11.086834771627764-27.223267157588452-11.365468225354562-45.525521286684125-30.207714836378727-70.973501293509798-42.504024115090942-5.455267511317288-2.63595210697531-12.096632338274503-3.849210527665491-19.746028628947897-2.294403252020857-21.304060565221334,4.274408545699771-30.72950186594062,25.633071750178715-31.376521468189821,40.252968692304421"/>
      <path class="cls-24" d="m1161.735537632660453,64.263563184505983c-97.489908790424124,185.51054990828743,51.849637469397749,354.564989394733857-175.459967711914032,496.761630987672106-43.009333917729236,26.905078803740253-88.520649998423323,55.027517861570232-138.237731105640705,71.080024922110169-48.17942666289764,15.556033649905658-100.164941866401023,19.07528458491106-133.027624475827906,4.057591841043177-36.752180226689234-16.79512767936103-43.129460681450837-52.267276970491366-44.481670537551508-87.59238278887824-1.244426704645775-32.509380719651745,2.142835532262325-68.073315626734257,9.831506004540643-103.867551709256077,7.1468733229176-33.61157693457244,12.776560264826912-91.246655035967706-20.863835310694412-100.901075314928676-14.965154708856062-4.275416737356863-55.879571193570882-1.227158817109739-140.722238127326818,47.505091963530504-88.31405317170902,50.726158690637021-120.169741096548023,92.534142024956964-201.724449767962142,132.25485838296845-68.000157615833814,33.119056115338026-145.130044458324846,38.520068626256034-197.439709235980445,17.230399783215034-28.057498401863086-11.419206222766661-46.88632959273491-30.542773457065778-72.717363191765799-43.579047110799365-4.997200111557504-2.52196134184851-10.945907309400354-4.285656988655319-18.167104608042791-3.104838233284681-20.171279319220957,3.267844003656137-28.38100883572406,23.911531673702484-28.086368976945778,37.522157053657793"/>
      <path class="cls-19" d="m1149.709716297698833,66.398029060897898c-101.316396929170878,190.57826142435988,56.613379903070381,369.472406142478576-181.320534766469791,509.438366344378665-42.795210498490633,25.174522690620506-88.553217473650875,48.878580999291444-136.910145617450326,62.40054086227974-48.356928143819459,13.521959862941003-100.004901154354229,15.556202302681413-131.717713851244298-1.596993882838433-35.608365028434491-19.260262824591337-39.999228848701932-57.800228533971676-38.381037988860953-94.564159014749748,1.489719573118236-33.845183827210349,6.608502113367649-68.461156876570385,15.302960406910643-103.486890285441405,8.134601239760741-32.770318958229836,12.684196108791184-84.866074974628646-18.207942100125365-95.797213886789905-13.709168798585779-4.850969767589049-54.230515496693442-2.916514011820254-139.652829750839373,42.872349159240912-89.549227423531192,48.001009541500025-120.182375959688216,87.377814906420099-201.54796687059752,130.000608595828453-66.026802003049852,34.587682576751831-148.574816774622377,44.18508991174167-201.041177663448252,23.373964599080864-28.894271861398011-11.461105340409631-48.302268843515776-30.790322890510652-74.461225034466224-44.654070072259856-4.543998061480124-2.40823613872999-9.795182317185208-4.722103435740792-16.58818063743638-3.91527318872977-19.038498109311149,2.261279493679467-26.032515880327992,22.189991652070603-24.796216590521908,34.79134550200979"/>
    </g>
  </g>
</svg>