<svg width="60" height="60" viewBox="0 0 60 60" fill="none" xmlns="http://www.w3.org/2000/svg">
<circle cx="30" cy="30" r="29.5" stroke="#666666"/>
<path d="M22.132 42V33.876H19.384V33.252H25.612V33.876H22.864V42H22.132ZM29.9398 42.168C28.3918 42.168 27.0358 40.932 27.0358 38.82C27.0358 36.672 28.3918 35.448 29.9398 35.448C31.4878 35.448 32.8318 36.672 32.8318 38.82C32.8318 40.932 31.4878 42.168 29.9398 42.168ZM29.9398 41.556C31.1878 41.556 32.1118 40.452 32.1118 38.82C32.1118 37.176 31.1878 36.048 29.9398 36.048C28.6798 36.048 27.7678 37.176 27.7678 38.82C27.7678 40.452 28.6798 41.556 29.9398 41.556ZM35.8888 44.856V35.604H36.4768L36.5608 36.396H36.5848C37.1968 35.904 37.9408 35.448 38.7208 35.448C40.4128 35.448 41.2768 36.732 41.2768 38.712C41.2768 40.896 39.9688 42.168 38.4568 42.168C37.8688 42.168 37.2208 41.88 36.5848 41.388L36.5968 42.552V44.856H35.8888ZM38.4088 41.556C39.6448 41.556 40.5448 40.416 40.5448 38.712C40.5448 37.176 40.0048 36.06 38.5888 36.06C37.9768 36.06 37.3288 36.42 36.5968 37.068V40.776C37.2688 41.34 37.9408 41.556 38.4088 41.556Z" fill="#666666"/>
<g clip-path="url(#clip0_181_5233)">
<path d="M44.7677 25.8254L29.5 14.3493L14.2324 25.8254" stroke="#666666" stroke-miterlimit="10"/>
</g>
<defs>
<clipPath id="clip0_181_5233">
<rect width="31" height="12" fill="white" transform="translate(14 14)"/>
</clipPath>
</defs>
</svg>
